<?xml version="1.0" encoding="utf-8"?>
<!-- Generator: Adobe Illustrator 24.0.0, SVG Export Plug-In . SVG Version: 6.00 Build 0)  -->
<svg version="1.1" xmlns="http://www.w3.org/2000/svg" xmlns:xlink="http://www.w3.org/1999/xlink" x="0px" y="0px"
	 viewBox="0 0 500 500" style="enable-background:new 0 0 500 500;" xml:space="preserve">
<g id="Background_Simple">
	<g>
		<path style="fill:#92C1E3;" d="M444.1,154.79c0,0-41.8-114.26-187.1-127.82C111.71,13.42,101.75,193.52,74.88,251.62
			C57.96,288.21,33,325.98,37.35,367.66c13.17,126.19,175.59,102.13,263.21,82.6c6.05-1.35,12.08-2.74,18.15-4.01
			c50.75-10.65,114.45,2.9,142.31-52.29C488.88,338.77,481.92,224.51,444.1,154.79z"/>
		<path style="opacity:0.7;fill:#FFFFFF;" d="M444.1,154.79c0,0-41.8-114.26-187.1-127.82C111.71,13.42,101.75,193.52,74.88,251.62
			C57.96,288.21,33,325.98,37.35,367.66c13.17,126.19,175.59,102.13,263.21,82.6c6.05-1.35,12.08-2.74,18.15-4.01
			c50.75-10.65,114.45,2.9,142.31-52.29C488.88,338.77,481.92,224.51,444.1,154.79z"/>
	</g>
</g>
<g id="Arms">
	<g>
		<g>
			<g>
				<g>
					<rect x="329.86" y="374.43" style="fill:#263238;" width="4.58" height="19.48"/>
					<polygon style="fill:#263238;" points="335.24,374.43 335.24,379.76 338.82,379.76 338.82,388.57 335.24,388.57 335.24,393.91 
						344.25,393.91 344.25,374.43 					"/>
					<rect x="329.86" y="380.57" style="fill:#263238;" width="7.69" height="7.2"/>
				</g>
				<g>
					<rect x="344.25" y="374.43" style="fill:#263238;" width="4.58" height="19.48"/>
					<polygon style="fill:#263238;" points="349.63,374.43 349.63,379.76 353.22,379.76 353.22,388.57 349.63,388.57 349.63,393.91 
						358.65,393.91 358.65,374.43 					"/>
					<rect x="344.25" y="380.57" style="fill:#263238;" width="7.69" height="7.2"/>
				</g>
				<g>
					<rect x="358.65" y="374.43" style="fill:#263238;" width="4.58" height="19.48"/>
					<polygon style="fill:#263238;" points="364.03,374.43 364.03,379.76 367.61,379.76 367.61,388.57 364.03,388.57 364.03,393.91 
						373.05,393.91 373.05,374.43 					"/>
					<rect x="358.65" y="380.57" style="fill:#263238;" width="7.69" height="7.2"/>
				</g>
				<g>
					<rect x="373.05" y="374.43" style="fill:#263238;" width="4.58" height="19.48"/>
					<polygon style="fill:#263238;" points="378.42,374.43 378.42,379.76 382.01,379.76 382.01,388.57 378.42,388.57 378.42,393.91 
						387.44,393.91 387.44,374.43 					"/>
					<rect x="373.05" y="380.57" style="fill:#263238;" width="7.69" height="7.2"/>
				</g>
				<g>
					<rect x="387.44" y="374.43" style="fill:#263238;" width="4.58" height="19.48"/>
					<polygon style="fill:#263238;" points="392.82,374.43 392.82,379.76 396.41,379.76 396.41,388.57 392.82,388.57 392.82,393.91 
						401.84,393.91 401.84,374.43 					"/>
					<rect x="387.44" y="380.57" style="fill:#263238;" width="7.69" height="7.2"/>
				</g>
				<g>
					<rect x="401.84" y="374.43" style="fill:#263238;" width="4.58" height="19.48"/>
					<polygon style="fill:#263238;" points="407.22,374.43 407.22,379.76 410.8,379.76 410.8,388.57 407.22,388.57 407.22,393.91 
						416.23,393.91 416.23,374.43 					"/>
					<rect x="401.84" y="380.57" style="fill:#263238;" width="7.69" height="7.2"/>
				</g>
				<g>
					<rect x="416.23" y="374.43" style="fill:#263238;" width="4.58" height="19.48"/>
					<polygon style="fill:#263238;" points="421.61,374.43 421.61,379.76 425.2,379.76 425.2,388.57 421.61,388.57 421.61,393.91 
						430.63,393.91 430.63,374.43 					"/>
					<rect x="416.23" y="380.57" style="fill:#263238;" width="7.69" height="7.2"/>
				</g>
				<g>
					<path style="fill:#263238;" d="M436.46,393.58c-1.04,0.19-2.08,0.2-3.13,0.26l-1.56,0.07h-1.15v-19.48h1.15l0.73-0.05
						c0.48-0.04,0.97,0,1.43-0.12L436.46,393.58z"/>
					<path style="fill:#263238;" d="M434.43,374.19l0.85,5.27c0.99-0.09,1.93-0.43,2.9-0.65l2.59,8.42
						c-1.36,0.33-2.7,0.77-4.09,0.92l0.85,5.27c4.08-0.66,8.05-2.03,11.67-4.03l-9.48-17.02
						C438.07,373.27,436.29,373.88,434.43,374.19z"/>
					<path style="fill:#263238;" d="M439.14,386.82c-1.4,0.42-2.86,0.56-4.3,0.79c-1.42,0.07-3,0.18-4.21,0.15v-7.2
						c1.36,0.03,2.34-0.08,3.48-0.12c1.09-0.19,2.2-0.28,3.25-0.61L439.14,386.82z"/>
				</g>
				<g>
					<path style="fill:#263238;" d="M454.41,385.86c-0.83,0.64-1.67,1.27-2.52,1.88c-0.88,0.57-1.78,1.11-2.68,1.64l-9.48-17.02
						c0.4-0.26,0.82-0.5,1.23-0.74c0.38-0.3,0.76-0.58,1.15-0.86L454.41,385.86z"/>
					<path style="fill:#263238;" d="M442.47,370.43l3.49,4.03l1.11-1l1-1.1l6.63,5.81c-0.47,0.52-0.93,1.04-1.42,1.54l-1.55,1.41
						l3.49,4.03c3.12-2.69,5.79-5.92,7.79-9.54l-16.99-9.54C445.14,367.73,443.9,369.2,442.47,370.43z"/>
					<path style="fill:#263238;" d="M453.12,378.7c-2.05,2.07-4.35,3.9-6.91,5.32l-3.5-6.29c1.94-1.07,3.67-2.47,5.23-4.03
						L453.12,378.7z"/>
				</g>
				<g>
					<path style="fill:#263238;" d="M465.6,369.86c-0.67,2-1.57,3.9-2.57,5.75l-16.99-9.54c0.44-0.84,0.87-1.7,1.16-2.61
						L465.6,369.86z"/>
					<path style="fill:#263238;" d="M447.37,363l5.09,1.6l0.37-1.44l0.19-0.72l0.11-0.74l8.69,1.45l-0.16,1.04l-0.25,1.02
						c-0.18,0.68-0.34,1.36-0.53,2.03l5.09,1.6c0.28-0.99,0.54-2,0.79-3c0.25-1,0.36-2.03,0.52-3.05c0.18-1.02,0.2-2.05,0.26-3.08
						l0.07-1.54l0-1.14h-19.48l0,1.12l-0.05,0.71c-0.03,0.47-0.01,0.95-0.12,1.41c-0.09,0.46-0.1,0.94-0.23,1.39
						C447.59,362.09,447.49,362.55,447.37,363z"/>
					<path style="fill:#263238;" d="M460.77,364.44c-0.61,2.86-1.71,5.6-3.1,8.16l-6.28-3.52c1.04-1.94,1.88-4,2.34-6.17
						L460.77,364.44z"/>
				</g>
				<g>
					<rect x="448.12" y="352.43" style="fill:#263238;" width="19.48" height="4.58"/>
					<polygon style="fill:#263238;" points="448.12,351.64 453.45,351.64 453.45,348.05 462.27,348.05 462.27,351.64 467.6,351.64 
						467.6,342.62 448.12,342.62 					"/>
					<rect x="454.26" y="349.33" style="fill:#263238;" width="7.2" height="7.69"/>
				</g>
				<g>
					<path style="fill:#263238;" d="M467.44,337.17c0.06,1.04,0.12,2.09,0.15,3.13l0,2.32h-19.48l0-2.26
						c-0.04-0.48-0.06-0.96-0.08-1.44L467.44,337.17z"/>
					<path style="fill:#263238;" d="M447.98,338.42l5.3-0.64l-0.22-1.47c-0.06-0.49-0.24-0.96-0.35-1.45l8.52-2.25
						c0.16,0.68,0.38,1.35,0.48,2.04l0.32,2.07l5.3-0.64c-0.46-4.11-1.72-8.13-3.58-11.81l-17.38,8.79
						C447.2,334.74,447.79,336.54,447.98,338.42z"/>
					<path style="fill:#263238;" d="M460.81,334.22c0.15,0.71,0.24,1.44,0.35,2.16c0.05,0.36,0.12,0.72,0.15,1.08l0.06,1.09
						c0.03,0.71,0.09,1.49,0.09,2.14v1.92h-7.2v-1.92c0-0.63-0.05-1.13-0.08-1.7l-0.04-0.83c-0.03-0.27-0.08-0.55-0.12-0.82
						c-0.09-0.54-0.15-1.1-0.26-1.63L460.81,334.22z"/>
				</g>
				<g>
					<path style="fill:#263238;" d="M460.42,318.94l0.94,1.26c0.3,0.43,0.56,0.89,0.84,1.33c0.54,0.9,1.11,1.78,1.55,2.74
						l-17.38,8.79c-0.17-0.45-0.47-0.83-0.7-1.25c-0.13-0.2-0.23-0.42-0.37-0.61l-0.44-0.57L460.42,318.94z"/>
					<path style="fill:#263238;" d="M444.55,330.24l4.17-3.33c-0.28-0.41-0.66-0.74-0.98-1.12c-0.33-0.37-0.65-0.75-1.04-1.07
						l6.07-6.39c0.53,0.45,0.99,0.98,1.46,1.5c0.46,0.53,0.97,1.01,1.37,1.58l4.17-3.33c-2.58-3.21-5.72-5.98-9.23-8.14
						l-10.21,16.59C441.92,327.5,443.36,328.77,444.55,330.24z"/>
					<path style="fill:#263238;" d="M453.23,319.93c2.06,2.07,3.68,4.54,5.03,7.12l-6.42,3.25c-1.03-1.95-2.24-3.83-3.81-5.39
						L453.23,319.93z"/>
				</g>
				<g>
					<path style="fill:#263238;" d="M444.9,307.11c1,0.34,1.92,0.84,2.88,1.29c0.96,0.43,1.85,0.98,2.75,1.53l-10.21,16.59
						c-0.41-0.25-0.8-0.52-1.25-0.7c-0.44-0.19-0.84-0.46-1.3-0.59L444.9,307.11z"/>
					<path style="fill:#263238;" d="M437.3,325.07l1.8-5.02c-0.91-0.39-1.9-0.55-2.85-0.83l1.8-8.63c1.35,0.36,2.73,0.63,4.03,1.16
						l1.8-5.02c-3.88-1.4-8.07-2.1-12.1-2.12l-0.04,19.48C433.71,324.12,435.52,324.44,437.3,325.07z"/>
					<path style="fill:#263238;" d="M439.29,311.74c1.43,0.31,2.78,0.88,4.15,1.39c1.32,0.63,2.65,1.23,3.87,2.03l-3.77,6.13
						c-0.92-0.62-1.94-1.05-2.93-1.54c-1.04-0.37-2.05-0.82-3.14-1.04L439.29,311.74z"/>
				</g>
				<g>
					<path style="fill:#263238;" d="M428.91,304.33c0.48,0.05,0.94,0.17,1.42,0.2c0.48,0.01,0.96,0.04,1.44,0.08l-0.04,19.48
						c-1.04-0.04-2.09-0.09-3.13-0.15c-1.04-0.08-2.08-0.28-3.12-0.43L428.91,304.33z"/>
					<path style="fill:#263238;" d="M424.41,323.31l1.1-5.22c-1.35-0.36-2.73-0.64-4.03-1.17l2.99-8.29
						c0.91,0.39,1.9,0.56,2.85,0.84l1.1-5.22c-1.84-0.38-3.59-1.12-5.19-2.11l-10.28,16.55
						C416.46,320.87,420.35,322.47,424.41,323.31z"/>
					<path style="fill:#263238;" d="M425.23,309.77c2.12,0.62,4.32,0.93,6.53,0.98l-0.01,7.2c-2.91-0.05-5.82-0.46-8.63-1.3
						L425.23,309.77z"/>
				</g>
				<g>
					<path style="fill:#263238;" d="M420.94,300.42l0.53,0.49l0.58,0.42l0.57,0.44c0.19,0.14,0.41,0.24,0.61,0.37l-10.28,16.55
						c-0.44-0.28-0.9-0.54-1.33-0.84l-1.26-0.93l-1.25-0.95c-0.4-0.34-0.79-0.69-1.18-1.04L420.94,300.42z"/>
					<path style="fill:#263238;" d="M407.13,314.19l3.68-3.86c-0.53-0.45-0.99-0.99-1.46-1.5c-0.46-0.53-0.97-1.01-1.37-1.58
						l6.89-5.49c0.27,0.42,0.66,0.74,0.98,1.12c0.34,0.37,0.65,0.75,1.04,1.07l3.68-3.86c-1.36-1.31-2.5-2.85-3.34-4.52l-17.42,8.72
						C401.66,307.99,404.15,311.35,407.13,314.19z"/>
					<path style="fill:#263238;" d="M414.95,303.1c1.43,1.69,3.17,3.1,5.04,4.27l-3.8,6.11c-2.47-1.54-4.76-3.41-6.65-5.63
						L414.95,303.1z"/>
				</g>
				<g>
					<path style="fill:#263238;" d="M416.17,292.92c0.3,0.9,0.61,1.81,1.06,2.65l-17.42,8.72c-0.96-1.87-1.7-3.85-2.32-5.85
						L416.17,292.92z"/>
					<path style="fill:#263238;" d="M397.21,297.38l5.16-1.35c-0.16-0.68-0.38-1.35-0.48-2.04l-0.32-2.07l8.75-1.04l0.22,1.47
						c0.05,0.49,0.24,0.96,0.34,1.45l5.16-1.35c-0.12-0.45-0.26-0.9-0.3-1.37c-0.04-0.47-0.19-0.92-0.19-1.4
						c-0.01-0.49-0.05-0.92-0.08-1.44v-2.25h-19.48v2.25c0.03,0.98,0.08,2.04,0.14,3.06c0.04,1.03,0.26,2.05,0.4,3.07
						C396.68,295.38,396.95,296.38,397.21,297.38z"/>
					<path style="fill:#263238;" d="M409.69,292.05c0.38,2.17,1.01,4.31,2.04,6.27l-6.44,3.22c-1.35-2.59-2.21-5.42-2.71-8.29
						L409.69,292.05z"/>
				</g>
				<g>
					<rect x="396.01" y="281.39" style="fill:#263238;" width="19.48" height="4.58"/>
					<polygon style="fill:#263238;" points="396.01,280.59 401.34,280.59 401.34,277.01 410.16,277.01 410.16,280.59 415.49,280.59 
						415.49,271.57 396.01,271.57 					"/>
					<rect x="402.15" y="278.28" style="fill:#263238;" width="7.2" height="7.69"/>
				</g>
				<g>
					<rect x="396.01" y="266.99" style="fill:#263238;" width="19.48" height="4.58"/>
					<polygon style="fill:#263238;" points="396.01,266.2 401.34,266.2 401.34,262.61 410.16,262.61 410.16,266.2 415.49,266.2 
						415.49,257.18 396.01,257.18 					"/>
					<rect x="402.15" y="263.88" style="fill:#263238;" width="7.2" height="7.69"/>
				</g>
			</g>
			
				<polyline style="fill:none;stroke:#263238;stroke-width:9;stroke-linecap:round;stroke-linejoin:round;stroke-miterlimit:10;" points="
				404.74,252.62 385.01,231.88 385.01,203.04 			"/>
			
				<polyline style="fill:none;stroke:#263238;stroke-width:9;stroke-linecap:round;stroke-linejoin:round;stroke-miterlimit:10;" points="
				406.13,252.62 425.86,231.88 425.86,203.04 			"/>
			
				<ellipse transform="matrix(0.9872 -0.1595 0.1595 0.9872 -35.1581 68.0982)" style="fill:#263238;stroke:#263238;stroke-miterlimit:10;" cx="406.76" cy="253.13" rx="14.67" ry="14.67"/>
			
				<ellipse transform="matrix(0.3847 -0.9231 0.9231 0.3847 16.6418 531.2244)" style="fill:#FFFFFF;stroke:#263238;stroke-miterlimit:10;" cx="406.76" cy="253.13" rx="8.45" ry="8.45"/>
		</g>
		<g>
			<g>
				<g>
					<rect x="199.92" y="370.89" style="fill:#263238;" width="4.59" height="19.48"/>
					<polygon style="fill:#263238;" points="199.13,390.37 199.13,385.03 195.53,385.03 195.53,376.22 199.13,376.22 199.13,370.89 
						190.09,370.89 190.09,390.37 					"/>
					<rect x="196.81" y="377.03" style="fill:#263238;" width="7.71" height="7.2"/>
				</g>
				<g>
					<path style="fill:#263238;" d="M186.56,370.69c0.57,0.08,1.16,0.06,1.73,0.1l0.87,0.05l0.43,0.03
						c0.14,0.01,0.28,0.02,0.49,0.02v19.48c-0.17,0-0.41-0.01-0.66-0.02l-0.71-0.03l-1.43-0.07c-0.95-0.06-1.9-0.07-2.85-0.19
						L186.56,370.69z"/>
					<path style="fill:#263238;" d="M183.46,389.91l0.69-5.29l-1.97-0.3c-0.66-0.1-1.32-0.2-1.96-0.38l1.93-8.6
						c0.51,0.16,1.04,0.23,1.56,0.3l1.58,0.24l0.69-5.29c-1.12-0.18-2.25-0.29-3.33-0.64l-1.65-0.41l-1.59-0.59l-6.86,18.23
						l2.65,0.96l2.73,0.72C179.73,389.39,181.6,389.64,183.46,389.91z"/>
					<path style="fill:#263238;" d="M183.1,376.37c1.16,0.15,2.3,0.39,3.47,0.49l3.52,0.17v7.2c-1.36-0.04-2.79-0.13-4.18-0.2
						c-1.39-0.12-2.78-0.39-4.16-0.59L183.1,376.37z"/>
				</g>
				<g>
					<path style="fill:#263238;" d="M176.24,367.56c1.05,0.48,2.05,1.06,3.16,1.39l-6.86,18.23c-1.82-0.6-3.52-1.49-5.24-2.31
						L176.24,367.56z"/>
					<path style="fill:#263238;" d="M166.41,384.43l2.54-4.69l-3.42-2.07l4.89-7.33l2.73,1.66l2.54-4.69l-1.45-0.89
						c-0.48-0.3-1-0.55-1.43-0.92c-0.89-0.71-1.87-1.3-2.66-2.12l-12.93,14.57c1.35,1.31,2.91,2.37,4.4,3.5
						c0.74,0.59,1.56,1.04,2.36,1.54L166.41,384.43z"/>
					<path style="fill:#263238;" d="M170.97,371.61l1.5,0.91c0.49,0.31,1.04,0.52,1.56,0.79l1.58,0.76
						c0.52,0.26,1.09,0.41,1.63,0.63l-2.53,6.74c-0.65-0.26-1.33-0.45-1.96-0.76l-1.9-0.91c-0.62-0.32-1.28-0.58-1.88-0.95
						l-1.8-1.09L170.97,371.61z"/>
				</g>
				<g>
					<path style="fill:#263238;" d="M167.71,360.93l1.16,1.29l1.29,1.16l-12.93,14.57l-2.11-1.93c-0.66-0.69-1.3-1.4-1.94-2.11
						L167.71,360.93z"/>
					<path style="fill:#263238;" d="M152.51,373.17l4.05-3.47c-0.46-0.48-0.86-1.01-1.26-1.55l-1.2-1.6l7.18-5.11l0.96,1.28
						c0.31,0.43,0.63,0.86,1.01,1.24l4.05-3.47c-0.41-0.4-0.72-0.88-1.06-1.33l-1.03-1.36l-0.88-1.46
						c-0.28-0.49-0.63-0.95-0.84-1.48l-17.28,9c0.38,0.86,0.91,1.64,1.39,2.45l1.48,2.4l1.68,2.26
						C151.32,371.72,151.86,372.49,152.51,373.17z"/>
					<path style="fill:#263238;" d="M161.33,362.84c0.36,0.46,0.67,0.96,1.07,1.38l1.18,1.3c0.41,0.42,0.75,0.9,1.2,1.27l1.3,1.18
						l-4.78,5.38l-1.55-1.42c-0.53-0.46-0.96-1.02-1.45-1.52l-1.41-1.56c-0.48-0.51-0.86-1.11-1.29-1.66L161.33,362.84z"/>
				</g>
				<g>
					<path style="fill:#263238;" d="M162.09,351.71c0.33,1.11,0.93,2.1,1.4,3.15l-17.28,9c-0.82-1.73-1.73-3.41-2.33-5.23
						L162.09,351.71z"/>
					<path style="fill:#263238;" d="M143.54,357.7l5.02-1.79c-0.22-0.63-0.47-1.25-0.66-1.88l-0.5-1.93l8.54-2.19l0.39,1.55
						c0.15,0.51,0.36,1,0.54,1.5l5.02-1.79c-0.82-2.11-1.24-4.35-1.55-6.6l-19.36,2.19C141.46,350.46,142.22,354.17,143.54,357.7z"
						/>
					<path style="fill:#263238;" d="M155.44,351.22c0.12,0.57,0.34,1.11,0.54,1.66l0.6,1.64c0.17,0.56,0.45,1.08,0.7,1.6l0.76,1.58
						l-6.38,3.33l-0.91-1.9c-0.3-0.63-0.62-1.26-0.84-1.93l-0.72-1.98c-0.24-0.66-0.5-1.31-0.65-2L155.44,351.22z"/>
				</g>
				<g>
					<path style="fill:#263238;" d="M160.12,341.06l0.1,1.76c0.05,0.58,0.01,1.16,0.11,1.73l-19.36,2.19
						c-0.21-1.88-0.25-3.83-0.33-5.68H160.12z"/>
					<polygon style="fill:#263238;" points="140.64,340.26 145.98,340.26 145.98,336.67 154.79,336.67 154.79,340.26 160.12,340.26 
						160.12,335.74 160.12,333.46 159.99,330.65 140.54,331.8 140.64,333.5 140.64,335.74 					"/>
					<path style="fill:#263238;" d="M153.98,337.94v1.93c0,0.64-0.01,1.31,0.03,1.87c0.08,1.17,0.08,2.34,0.22,3.5l-7.15,0.81
						c-0.17-1.39-0.18-2.8-0.26-4.19c-0.05-0.73-0.03-1.33-0.03-1.98v-1.93H153.98z"/>
				</g>
				<g>
					<path style="fill:#263238;" d="M159.33,324.97c0.29,1.89,0.62,3.77,0.66,5.68l-19.45,1.15c0.01-1.16-0.23-2.3-0.39-3.44
						L159.33,324.97z"/>
					<path style="fill:#263238;" d="M140.07,327.77l5.23-1.04c-0.22-1.04-0.52-2.06-0.77-3.09l8.45-2.49
						c0.33,1.29,0.69,2.58,0.97,3.88l5.23-1.03c-0.17-0.92-0.44-1.83-0.66-2.74c-0.25-0.91-0.44-1.83-0.75-2.72l-0.96-2.65
						l-0.49-1.32c-0.18-0.43-0.39-0.85-0.59-1.28l-17.74,8.05c0.12,0.26,0.26,0.5,0.37,0.77l0.28,0.8l0.59,1.59
						c0.2,0.53,0.28,1.1,0.44,1.64C139.78,326.67,139.97,327.21,140.07,327.77z"/>
					<path style="fill:#263238;" d="M152.55,322.72l0.52,2.04c0.13,0.69,0.22,1.38,0.34,2.08l0.31,2.08c0.09,0.69,0.09,1.4,0.14,2.1
						l-7.18,0.42c-0.04-0.58-0.03-1.17-0.11-1.75l-0.27-1.73c-0.09-0.58-0.16-1.16-0.27-1.73l-0.44-1.69L152.55,322.72z"/>
				</g>
				<g>
					<path style="fill:#263238;" d="M153.04,308.21c0.48,0.83,1.03,1.61,1.43,2.48l1.25,2.58l-17.74,8.05l-0.75-1.56
						c-0.22-0.53-0.59-0.99-0.87-1.49L153.04,308.21z"/>
					<path style="fill:#263238;" d="M136.05,317.76l4.51-2.85c-0.51-0.94-1.2-1.76-1.83-2.62l7-5.36c0.79,1.07,1.63,2.11,2.28,3.27
						l4.51-2.85l-0.74-1.2c-0.26-0.39-0.55-0.76-0.83-1.14l-1.69-2.25c-0.55-0.76-1.23-1.42-1.84-2.13
						c-0.64-0.69-1.25-1.4-1.92-2.06l-13.7,13.85c0.41,0.4,0.76,0.84,1.15,1.26c0.37,0.43,0.81,0.81,1.12,1.28l1.02,1.37
						c0.17,0.23,0.35,0.45,0.51,0.68L136.05,317.76z"/>
					<path style="fill:#263238;" d="M145.92,308.54c1.64,2.27,3.04,4.72,4.2,7.27l-6.55,2.97c-0.96-2.12-2.13-4.16-3.5-6.05
						L145.92,308.54z"/>
				</g>
				<g>
					<path style="fill:#263238;" d="M141.19,294.83c0.38,0.29,0.77,0.57,1.13,0.87l1.06,0.96l2.11,1.93l-13.7,13.85l-1.29-1.16
						l-0.64-0.59c-0.22-0.19-0.46-0.34-0.69-0.52L141.19,294.83z"/>
					<path style="fill:#263238;" d="M128.71,309.82l3.2-4.27l-1.28-0.96c-0.44-0.3-0.91-0.56-1.36-0.84l4.63-7.5
						c0.56,0.35,1.15,0.68,1.7,1.06l1.6,1.19l3.2-4.27c-0.76-0.55-1.49-1.14-2.28-1.65l-2.41-1.47l-1.21-0.72
						c-0.41-0.23-0.84-0.42-1.26-0.63l-2.54-1.22l-7.84,17.83l1.53,0.74c0.25,0.13,0.52,0.23,0.77,0.37l0.72,0.45l1.46,0.88
						C127.82,309.11,128.25,309.49,128.71,309.82z"/>
					<path style="fill:#263238;" d="M134.67,297.66c1.16,0.78,2.26,1.66,3.39,2.49c1.08,0.89,2.09,1.87,3.13,2.8l-5.06,5.12
						c-0.88-0.77-1.71-1.59-2.61-2.34c-0.95-0.68-1.85-1.42-2.82-2.07L134.67,297.66z"/>
				</g>
				<g>
					<path style="fill:#263238;" d="M125.33,286.53c0.91,0.29,1.8,0.63,2.7,0.96c0.89,0.35,1.82,0.61,2.67,1.05l-7.84,17.83
						c-0.5-0.29-1.08-0.41-1.61-0.63c-0.54-0.19-1.07-0.42-1.62-0.59L125.33,286.53z"/>
					<path style="fill:#263238;" d="M119.05,305.01l1.46-5.13l-1.54-0.4c-0.51-0.13-1.02-0.29-1.56-0.34l1.62-8.66
						c0.66,0.08,1.3,0.26,1.95,0.42l1.94,0.5l1.46-5.13c-1.82-0.47-3.63-0.99-5.5-1.21l-2.79-0.42c-0.93-0.08-1.87-0.12-2.81-0.17
						l-0.92,19.46c0.57,0.03,1.14,0.04,1.71,0.08l1.68,0.27C116.87,304.39,117.95,304.75,119.05,305.01z"/>
					<path style="fill:#263238;" d="M120.24,291.55c1.35,0.37,2.73,0.64,4.06,1.11c1.31,0.5,2.66,0.91,3.93,1.5l-2.9,6.59
						c-1.06-0.49-2.18-0.82-3.27-1.25c-1.1-0.39-2.25-0.6-3.38-0.92L120.24,291.55z"/>
				</g>
				<g>
					<path style="fill:#263238;" d="M107.93,284.43l1.43-0.06l1.16,0c0.34-0.01,0.86,0.02,1.33,0.04l1.43,0.07l-0.92,19.46
						l-0.87-0.05c-0.29-0.02-0.54-0.04-0.97-0.04l-1.14,0l-0.87,0.05L107.93,284.43z"/>
					<path style="fill:#263238;" d="M107.91,303.94l-0.26-5.33l-1.6,0.08c-0.53,0.03-1.05,0.15-1.58,0.22l-1.23-8.73
						c0.66-0.09,1.31-0.22,1.98-0.27l1.99-0.1l-0.26-5.33c-0.94,0.06-1.87,0.08-2.81,0.18l-2.79,0.42c-1.87,0.22-3.68,0.76-5.5,1.22
						l5.36,18.73c1.1-0.26,2.18-0.63,3.31-0.73l1.68-0.27C106.77,303.97,107.34,303.98,107.91,303.94z"/>
					<path style="fill:#263238;" d="M104.73,290.78c1.39-0.13,2.8-0.16,4.19-0.24c0.72-0.04,1.31-0.01,1.97-0.02l2.1,0.1l-0.34,7.19
						l-1.75-0.09c-0.62,0.01-1.33-0.02-1.89,0.02c-1.17,0.07-2.34,0.1-3.5,0.2L104.73,290.78z"/>
				</g>
				<g>
					<path style="fill:#263238;" d="M90.43,288.17l2.69-0.99c0.9-0.33,1.79-0.67,2.73-0.88l5.36,18.73
						c-0.57,0.11-1.1,0.33-1.64,0.53l-1.62,0.58L90.43,288.17z"/>
					<path style="fill:#263238;" d="M97.41,306.4l-2.16-4.88c-0.95,0.48-1.93,0.89-2.86,1.41l-4.29-7.7
						c1.16-0.65,2.39-1.18,3.58-1.77l-2.16-4.88c-1.68,0.83-3.43,1.56-5.01,2.59l-2.4,1.47c-0.78,0.52-1.52,1.1-2.28,1.66
						l11.72,15.56c0.46-0.33,0.9-0.7,1.37-1.01l1.46-0.88C95.33,307.31,96.4,306.93,97.41,306.4z"/>
					<path style="fill:#263238;" d="M89.73,295.3c2.5-1.28,5.12-2.32,7.81-3.09l1.98,6.92c-2.24,0.64-4.42,1.51-6.5,2.57
						L89.73,295.3z"/>
				</g>
				<g>
					<path style="fill:#263238;" d="M75.47,297.99l2.12-1.92c0.69-0.66,1.5-1.18,2.25-1.77l11.72,15.56
						c-0.45,0.36-0.96,0.65-1.37,1.06l-1.28,1.17L75.47,297.99z"/>
					<path style="fill:#263238;" d="M88.47,312.48l-3.76-3.79l-2.16,2.36l-6.75-5.67c0.9-0.98,1.78-1.98,2.7-2.94l-3.76-3.79
						c-0.66,0.67-1.28,1.37-1.91,2.06c-0.61,0.71-1.3,1.36-1.84,2.13c-1.11,1.51-2.32,2.96-3.25,4.6l16.5,10.36
						c0.53-1.01,1.31-1.85,1.96-2.78c0.31-0.48,0.75-0.85,1.12-1.29C87.71,313.33,88.07,312.89,88.47,312.48z"/>
					<path style="fill:#263238;" d="M77.36,304.88l1.42-1.55c0.48-0.51,1.02-0.96,1.54-1.43l1.56-1.41
						c0.54-0.45,1.11-0.85,1.67-1.28l4.33,5.75c-0.46,0.36-0.95,0.68-1.4,1.06l-1.29,1.18c-0.43,0.4-0.88,0.77-1.28,1.19l-1.18,1.3
						L77.36,304.88z"/>
				</g>
				<g>
					<path style="fill:#263238;" d="M64.99,312.47c0.42-0.86,0.82-1.73,1.27-2.57l1.48-2.45l16.5,10.36l-0.91,1.47
						c-0.27,0.51-0.5,1.04-0.75,1.55L64.99,312.47z"/>
					<path style="fill:#263238;" d="M82.32,321.38l-4.86-2.19l-0.35,0.72l-0.27,0.75l-0.55,1.5l-8.33-2.87l0.69-1.88l0.35-0.94
						l0.43-0.9l-4.86-2.19c-0.43,0.84-0.76,1.72-1.08,2.6l-0.96,2.65c-0.3,0.89-0.5,1.81-0.74,2.72c-0.22,0.91-0.5,1.82-0.65,2.74
						l19.12,3.74c0.08-0.56,0.28-1.1,0.41-1.65c0.15-0.54,0.25-1.11,0.43-1.64l0.59-1.59C81.86,322.41,82.05,321.88,82.32,321.38z"
						/>
					<path style="fill:#263238;" d="M69.2,318.23c0.43-1.34,1.08-2.58,1.69-3.85c0.56-1.29,1.33-2.46,2.06-3.66l6.09,3.83
						c-0.6,1-1.26,1.97-1.71,3.05c-0.5,1.05-1.06,2.09-1.41,3.2L69.2,318.23z"/>
				</g>
				<g>
					<path style="fill:#263238;" d="M60.38,329.77c0.03-0.48,0.04-0.95,0.1-1.42l0.21-1.42l0.44-2.83l19.12,3.74L80,329.54
						l-0.14,0.85c-0.04,0.29-0.03,0.58-0.05,0.87L60.38,329.77z"/>
					<path style="fill:#263238;" d="M79.78,331.86l-5.33-0.3c-0.05,1.07-0.13,2.09-0.11,3.34h-8.81c-0.03-1.14,0.05-2.51,0.12-3.84
						l-5.33-0.3l-0.13,2.81l0,2.26v4.52h19.48v-4.52l0-2.26L79.78,331.86z"/>
					<path style="fill:#263238;" d="M66.34,333.62l0.21-4.19c0.16-1.39,0.4-2.77,0.61-4.16l7.06,1.38
						c-0.16,1.16-0.37,2.31-0.51,3.46l-0.18,3.51H66.34z"/>
				</g>
				<g>
					<rect x="60.2" y="340.35" style="fill:#263238;" width="19.48" height="4.59"/>
					<polygon style="fill:#263238;" points="79.68,345.74 74.35,345.74 74.35,349.33 65.53,349.33 65.53,345.74 60.2,345.74 
						60.2,354.78 79.68,354.78 					"/>
					<rect x="66.34" y="340.35" style="fill:#263238;" width="7.2" height="7.71"/>
				</g>
				<g>
					<rect x="60.2" y="354.78" style="fill:#263238;" width="19.48" height="4.59"/>
					<polygon style="fill:#263238;" points="79.68,360.17 74.35,360.17 74.35,363.76 65.53,363.76 65.53,360.17 60.2,360.17 
						60.2,369.21 79.68,369.21 					"/>
					<rect x="66.34" y="354.78" style="fill:#263238;" width="7.2" height="7.71"/>
				</g>
				<g>
					<rect x="60.2" y="369.21" style="fill:#263238;" width="19.48" height="4.59"/>
					<rect x="66.34" y="369.21" style="fill:#263238;" width="7.2" height="7.71"/>
				</g>
				<g>
					<polygon style="fill:#263238;" points="79.68,373.8 74.35,373.8 74.35,377.4 65.53,377.4 65.53,373.8 60.2,373.8 60.2,382.84 
						79.68,382.84 					"/>
					<rect x="66.34" y="368.41" style="fill:#263238;" width="7.2" height="7.71"/>
				</g>
			</g>
			
				<polyline style="fill:none;stroke:#263238;stroke-width:9;stroke-linecap:round;stroke-linejoin:round;stroke-miterlimit:10;" points="
				72.47,381.33 92.2,402.07 92.2,430.91 			"/>
			
				<polyline style="fill:none;stroke:#263238;stroke-width:9;stroke-linecap:round;stroke-linejoin:round;stroke-miterlimit:10;" points="
				71.07,381.33 51.34,402.07 51.34,430.91 			"/>
			
				<ellipse transform="matrix(0.9871 -0.1602 0.1602 0.9871 -60.091 16.2014)" style="fill:#263238;stroke:#263238;stroke-miterlimit:10;" cx="70.45" cy="380.82" rx="14.67" ry="14.67"/>
			<circle style="fill:#FFFFFF;stroke:#263238;stroke-miterlimit:10;" cx="70.45" cy="380.82" r="7.99"/>
		</g>
	</g>
</g>
<g id="Device">
	<g>
		<g>
			<g>
				<g>
					<path style="fill:#263238;" d="M157.5,174.23c7.29,1.79,12.52,1.41,12.97,1.37l-0.31-3.72c-0.22,0.02-21.98,1.55-38.8-18.5
						l-2.86,2.4C138.16,167.28,149.17,172.18,157.5,174.23z"/>
				</g>
				<g>
					<path style="fill:#263238;" d="M128.18,195.89c22.57-20.19,41.01-13.71,41.19-13.64l1.29-3.5c-0.84-0.31-20.76-7.3-44.97,14.36
						L128.18,195.89z"/>
				</g>
				<g>
					<path style="fill:#263238;" d="M128.16,214.06c23.11-1.32,43.07-26.75,43.91-27.84l-2.95-2.29
						c-0.19,0.25-19.77,25.17-41.18,26.4L128.16,214.06z"/>
				</g>
				<line style="fill:none;stroke:#263238;stroke-miterlimit:10;" x1="130.66" y1="155.78" x2="125.81" y2="150.49"/>
				<line style="fill:none;stroke:#263238;stroke-miterlimit:10;" x1="129.34" y1="191.67" x2="123.58" y2="198.46"/>
				<path style="fill:none;stroke:#263238;stroke-miterlimit:10;" d="M131.59,211.7c0,0-5.15,0.1-9.66-1.01"/>
			</g>
			<line style="fill:none;stroke:#263238;stroke-miterlimit:10;" x1="118.02" y1="197.43" x2="112.31" y2="198.42"/>
			<line style="fill:none;stroke:#263238;stroke-miterlimit:10;" x1="120.77" y1="200.16" x2="113.63" y2="206.94"/>
			<line style="fill:none;stroke:#263238;stroke-miterlimit:10;" x1="123.59" y1="201.19" x2="123.29" y2="206.58"/>
			<line style="fill:none;stroke:#263238;stroke-miterlimit:10;" x1="119.27" y1="164.59" x2="106.7" y2="161.5"/>
			<line style="fill:none;stroke:#263238;stroke-miterlimit:10;" x1="128.77" y1="167.62" x2="109.46" y2="168.33"/>
			<line style="fill:none;stroke:#263238;stroke-miterlimit:10;" x1="123.67" y1="159.19" x2="112.47" y2="154.72"/>
			<line style="fill:none;stroke:#263238;stroke-miterlimit:10;" x1="155.4" y1="209.36" x2="149.88" y2="217.91"/>
			<line style="fill:none;stroke:#263238;stroke-miterlimit:10;" x1="151.37" y1="207.69" x2="138.71" y2="220.29"/>
			<line style="fill:none;stroke:#263238;stroke-miterlimit:10;" x1="150.29" y1="198.19" x2="140.88" y2="198.95"/>
			
				<polygon style="fill:#2765E3;stroke:#263238;stroke-width:0.5;stroke-linecap:round;stroke-linejoin:round;stroke-miterlimit:10;" points="
				103.48,181.55 105.61,185.43 102.58,188.66 106.93,187.83 109.06,191.7 109.61,187.31 113.96,186.48 109.96,184.6 110.51,180.21 
				107.48,183.43 			"/>
			
				<polygon style="fill:#2765E3;stroke:#263238;stroke-width:0.5;stroke-linecap:round;stroke-linejoin:round;stroke-miterlimit:10;" points="
				109.43,137.92 111.56,141.79 108.53,145.02 112.88,144.19 115.01,148.07 115.57,143.68 119.91,142.84 115.91,140.96 
				116.46,136.57 113.43,139.8 			"/>
		</g>
		<g>
			<g>
				<g>
					<path style="fill:#263238;" d="M346.76,357.71c-6.98,0.73-11.46,2.72-11.85,2.9l1.45,3.17c0.19-0.08,18.84-8.31,39.99,4.01
						l1.76-3.01C365.97,357.7,354.73,356.88,346.76,357.71z"/>
				</g>
				<g>
					<path style="fill:#263238;" d="M365.7,329.38c-13.47,24.9-31.74,25.02-31.92,25.03l-0.03,3.49
						c0.83,0.01,20.57-0.14,35.02-26.85L365.7,329.38z"/>
				</g>
				<g>
					<path style="fill:#263238;" d="M359.98,313.39c-19.91,8.47-29.44,37.16-29.83,38.37l3.32,1.08c0.09-0.28,9.44-28.4,27.88-36.24
						L359.98,313.39z"/>
				</g>
				<line style="fill:none;stroke:#263238;stroke-miterlimit:10;" x1="376.2" y1="365.45" x2="382.14" y2="368.58"/>
				<line style="fill:none;stroke:#263238;stroke-miterlimit:10;" x1="366.01" y1="333.46" x2="368.94" y2="325.67"/>
				<path style="fill:none;stroke:#263238;stroke-miterlimit:10;" d="M357.7,316.55c0,0,4.5-1.72,8.82-2.17"/>
			</g>
			<line style="fill:none;stroke:#263238;stroke-miterlimit:10;" x1="374.15" y1="324.81" x2="378.86" y2="322.14"/>
			<line style="fill:none;stroke:#263238;stroke-miterlimit:10;" x1="370.88" y1="323.28" x2="375.01" y2="315.06"/>
			<line style="fill:none;stroke:#263238;stroke-miterlimit:10;" x1="368.07" y1="323.26" x2="366.63" y2="318.43"/>
			<line style="fill:none;stroke:#263238;stroke-miterlimit:10;" x1="383.44" y1="354.1" x2="395.47" y2="352.84"/>
			<line style="fill:none;stroke:#263238;stroke-miterlimit:10;" x1="374.12" y1="354.44" x2="390.88" y2="347.71"/>
			<line style="fill:none;stroke:#263238;stroke-miterlimit:10;" x1="381.27" y1="360.25" x2="392.54" y2="360.63"/>
			<line style="fill:none;stroke:#263238;stroke-miterlimit:10;" x1="337.49" y1="326.14" x2="339.65" y2="316.87"/>
			<line style="fill:none;stroke:#263238;stroke-miterlimit:10;" x1="341.57" y1="326.34" x2="348.73" y2="311.25"/>
			<line style="fill:none;stroke:#263238;stroke-miterlimit:10;" x1="345.52" y1="334.34" x2="353.56" y2="330.7"/>
			
				<polygon style="fill:#2765E3;stroke:#263238;stroke-width:0.5;stroke-linecap:round;stroke-linejoin:round;stroke-miterlimit:10;" points="
				391.97,334.18 388.87,331.45 390.51,327.65 386.95,329.76 383.85,327.02 384.75,331.06 381.19,333.16 385.31,333.55 
				386.21,337.59 387.85,333.79 			"/>
			
				<polygon style="fill:#2765E3;stroke:#263238;stroke-width:0.5;stroke-linecap:round;stroke-linejoin:round;stroke-miterlimit:10;" points="
				400.53,374.46 397.43,371.72 399.07,367.92 395.51,370.03 392.41,367.29 393.31,371.33 389.75,373.44 393.87,373.83 
				394.77,377.86 396.41,374.07 			"/>
			
				<polygon style="fill:#2765E3;stroke:#263238;stroke-width:0.5;stroke-linecap:round;stroke-linejoin:round;stroke-miterlimit:10;" points="
				348.07,307.88 344.96,305.15 346.61,301.35 343.05,303.46 339.94,300.72 340.85,304.76 337.28,306.86 341.4,307.25 342.3,311.29 
				343.95,307.49 			"/>
		</g>
	</g>
	<g>
		<g>
			
				<line style="fill:none;stroke:#263238;stroke-linecap:round;stroke-linejoin:round;stroke-miterlimit:10;" x1="140.11" y1="264.81" x2="140.11" y2="267.39"/>
			
				<line style="fill:none;stroke:#263238;stroke-linecap:round;stroke-linejoin:round;stroke-miterlimit:10;" x1="140.11" y1="236.54" x2="140.11" y2="262.47"/>
			
				<line style="fill:none;stroke:#263238;stroke-linecap:round;stroke-linejoin:round;stroke-miterlimit:10;" x1="135.79" y1="245.27" x2="135.79" y2="270.88"/>
		</g>
		<g>
			
				<line style="fill:none;stroke:#263238;stroke-linecap:round;stroke-linejoin:round;stroke-miterlimit:10;" x1="367.33" y1="237.3" x2="367.33" y2="241.13"/>
			
				<line style="fill:none;stroke:#263238;stroke-linecap:round;stroke-linejoin:round;stroke-miterlimit:10;" x1="367.33" y1="195.3" x2="367.33" y2="233.83"/>
			
				<line style="fill:none;stroke:#263238;stroke-linecap:round;stroke-linejoin:round;stroke-miterlimit:10;" x1="363" y1="208.27" x2="363" y2="246.32"/>
		</g>
		<g>
			
				<line style="fill:none;stroke:#263238;stroke-linecap:round;stroke-linejoin:round;stroke-miterlimit:10;" x1="308.49" y1="294.91" x2="304.66" y2="294.91"/>
			
				<line style="fill:none;stroke:#263238;stroke-linecap:round;stroke-linejoin:round;stroke-miterlimit:10;" x1="350.49" y1="294.91" x2="311.96" y2="294.91"/>
			
				<line style="fill:none;stroke:#263238;stroke-linecap:round;stroke-linejoin:round;stroke-miterlimit:10;" x1="337.52" y1="290.58" x2="299.47" y2="290.58"/>
		</g>
		<g>
			
				<line style="fill:none;stroke:#263238;stroke-linecap:round;stroke-linejoin:round;stroke-miterlimit:10;" x1="175.04" y1="294.91" x2="171.2" y2="294.91"/>
			
				<line style="fill:none;stroke:#263238;stroke-linecap:round;stroke-linejoin:round;stroke-miterlimit:10;" x1="217.04" y1="294.91" x2="178.51" y2="294.91"/>
			
				<line style="fill:none;stroke:#263238;stroke-linecap:round;stroke-linejoin:round;stroke-miterlimit:10;" x1="204.07" y1="290.58" x2="166.01" y2="290.58"/>
		</g>
	</g>
	<g>
		<g>
			<g>
				<rect x="230.95" y="278.93" style="fill:#FFFFFF;stroke:#263238;stroke-miterlimit:10;" width="41.22" height="41.22"/>
				<rect x="230.95" y="278.93" style="fill:#263238;stroke:#263238;stroke-miterlimit:10;" width="41.22" height="10.88"/>
				<line style="fill:none;stroke:#263238;stroke-miterlimit:10;" x1="231.46" y1="298.2" x2="271.82" y2="298.2"/>
				<line style="fill:none;stroke:#263238;stroke-miterlimit:10;" x1="231.46" y1="306.09" x2="271.82" y2="306.09"/>
				<line style="fill:none;stroke:#263238;stroke-miterlimit:10;" x1="231.46" y1="313.99" x2="271.82" y2="313.99"/>
				<line style="fill:none;stroke:#263238;stroke-miterlimit:10;" x1="269.21" y1="288.73" x2="269.21" y2="296.34"/>
				<line style="fill:none;stroke:#263238;stroke-miterlimit:10;" x1="269.21" y1="298.33" x2="269.21" y2="303.95"/>
				<line style="fill:none;stroke:#263238;stroke-miterlimit:10;" x1="269.21" y1="306.48" x2="269.21" y2="312.1"/>
			</g>
			<g>
				<path style="fill:#263238;stroke:#263238;stroke-miterlimit:10;" d="M285.55,152.36h-67.99v-19.65c0-4.5,3.64-8.14,8.14-8.14
					h51.71c4.5,0,8.14,3.64,8.14,8.14V152.36z"/>
				<path style="fill:#263238;stroke:#263238;stroke-miterlimit:10;" d="M353.42,285.01H149.69c-2.08,0-3.76-1.68-3.76-3.76V138.01
					c0-2.08,1.68-3.76,3.76-3.76h203.74c2.08,0,3.76,1.68,3.76,3.76v143.24C357.19,283.33,355.5,285.01,353.42,285.01z"/>
				<path style="fill:#92B4E3;stroke:#263238;stroke-miterlimit:10;" d="M345.64,278.03H157.48c-2.08,0-3.76-1.68-3.76-3.76V144.99
					c0-2.08,1.68-3.76,3.76-3.76h188.16c2.08,0,3.76,1.68,3.76,3.76v129.28C349.4,276.35,347.71,278.03,345.64,278.03z"/>
				<path style="fill:#FFFFFF;stroke:#263238;stroke-miterlimit:10;" d="M278.61,129.61c0-1.39-1.13-2.52-2.52-2.52
					c-1.39,0-2.52,1.13-2.52,2.52c0,1.39,1.13,2.52,2.52,2.52C277.48,132.14,278.61,131.01,278.61,129.61z"/>
				<path style="fill:#FFFFFF;stroke:#263238;stroke-miterlimit:10;" d="M269.15,129.61c0-1.39-1.13-2.52-2.52-2.52
					c-1.39,0-2.52,1.13-2.52,2.52c0,1.39,1.13,2.52,2.52,2.52C268.02,132.14,269.15,131.01,269.15,129.61z"/>
				<path style="fill:#FFFFFF;stroke:#263238;stroke-miterlimit:10;" d="M259.69,129.61c0-1.39-1.13-2.52-2.52-2.52
					s-2.52,1.13-2.52,2.52c0,1.39,1.13,2.52,2.52,2.52S259.69,131.01,259.69,129.61z"/>
			</g>
		</g>
		<g>
			<line style="fill:none;stroke:#263238;stroke-miterlimit:10;" x1="269.21" y1="314.64" x2="269.21" y2="320.26"/>
			<path style="fill:#FFFFFF;stroke:#263238;stroke-miterlimit:10;" d="M436.1,469.78H67.01v-21.55c0-6.2,5.03-11.23,11.23-11.23
				h346.62c6.2,0,11.23,5.03,11.23,11.23V469.78z"/>
			<path style="fill:#FFFFFF;stroke:#263238;stroke-miterlimit:10;" d="M333.69,469.78H169.42V330.41c0-6.2,5.03-11.23,11.23-11.23
				h141.81c6.2,0,11.23,5.03,11.23,11.23V469.78z"/>
			<path style="fill:#263238;stroke:#263238;stroke-miterlimit:10;" d="M302.1,426.5H201.01c-2.08,0-3.76-1.68-3.76-3.76v-68.4
				c0-2.08,1.68-3.76,3.76-3.76H302.1c2.08,0,3.76,1.68,3.76,3.76v68.4C305.86,424.81,304.17,426.5,302.1,426.5z"/>
			<path style="fill:#263238;stroke:#263238;stroke-miterlimit:10;" d="M209.86,437.29c0-3.02-2.45-5.46-5.46-5.46
				c-3.02,0-5.46,2.45-5.46,5.46s2.45,5.46,5.46,5.46C207.42,442.75,209.86,440.3,209.86,437.29z"/>
			<circle style="fill:#263238;stroke:#263238;stroke-miterlimit:10;" cx="222.84" cy="437.29" r="5.46"/>
			<circle style="fill:#263238;stroke:#263238;stroke-miterlimit:10;" cx="241.27" cy="437.29" r="5.46"/>
			<g>
				
					<rect x="255.72" y="442.31" transform="matrix(6.123234e-17 -1 1 6.123234e-17 -186.5882 705.5405)" style="fill:#263238;stroke:#263238;stroke-miterlimit:10;" width="7.51" height="7.51"/>
				
					<rect x="255.72" y="432.41" transform="matrix(6.123234e-17 -1 1 6.123234e-17 -176.6872 695.6395)" style="fill:#263238;stroke:#263238;stroke-miterlimit:10;" width="7.51" height="7.51"/>
				
					<rect x="265.28" y="442.31" transform="matrix(6.123234e-17 -1 1 6.123234e-17 -177.0286 715.1001)" style="fill:#263238;stroke:#263238;stroke-miterlimit:10;" width="7.51" height="7.51"/>
				
					<rect x="265.28" y="432.41" transform="matrix(6.123234e-17 -1 1 6.123234e-17 -167.1276 705.1991)" style="fill:#263238;stroke:#263238;stroke-miterlimit:10;" width="7.51" height="7.51"/>
				
					<rect x="274.84" y="442.31" transform="matrix(6.123234e-17 -1 1 6.123234e-17 -167.4691 724.6596)" style="fill:#263238;stroke:#263238;stroke-miterlimit:10;" width="7.51" height="7.51"/>
				
					<rect x="274.84" y="432.41" transform="matrix(6.123234e-17 -1 1 6.123234e-17 -157.5681 714.7586)" style="fill:#263238;stroke:#263238;stroke-miterlimit:10;" width="7.51" height="7.51"/>
			</g>
			<path style="fill:#FFFFFF;stroke:#263238;stroke-miterlimit:10;" d="M232.4,342.37h-31.41c-1.51,0-2.73-1.22-2.73-2.73l0,0
				c0-1.51,1.22-2.73,2.73-2.73h31.41c1.51,0,2.73,1.22,2.73,2.73l0,0C235.13,341.15,233.9,342.37,232.4,342.37z"/>
			<circle style="fill:#263238;stroke:#263238;stroke-miterlimit:10;" cx="210.55" cy="338.96" r="5.46"/>
			<polyline style="fill:none;stroke:#263238;stroke-miterlimit:10;" points="333.18,344.31 317.74,359.95 317.74,432.92 
				333.67,448.56 			"/>
			<polyline style="fill:none;stroke:#263238;stroke-miterlimit:10;" points="170.06,344.31 185.51,359.95 185.51,432.92 
				169.58,448.56 			"/>
			
				<polyline style="fill:none;stroke:#92B4E3;stroke-width:2;stroke-linecap:round;stroke-linejoin:round;stroke-miterlimit:10;" points="
				199.61,388.08 224.42,388.08 240.08,364.73 255.07,388.08 266.01,388.08 275.82,402.67 284.26,388.33 299.58,388.33 			"/>
		</g>
	</g>
	<line style="fill:none;stroke:#263238;stroke-width:2;stroke-miterlimit:10;" x1="25.06" y1="469.78" x2="478.06" y2="469.78"/>
</g>
<g id="Screws">
	<g>
		<path style="fill:#FFFFFF;stroke:#263238;stroke-linecap:round;stroke-linejoin:round;stroke-miterlimit:10;" d="M158.12,408.55
			c-1.14-1.8-0.88-4.02,0.6-4.95c1.47-0.93,3.59-0.23,4.73,1.57c1.14,1.8,0.88,4.02-0.6,4.95
			C161.38,411.05,159.26,410.35,158.12,408.55z"/>
		<g>
			<path style="fill:#FFFFFF;stroke:#263238;stroke-miterlimit:10;" d="M151.11,409.17c0.07-0.04,0.14-0.08,0.21-0.11l8.09-3.62
				c0.82-0.37,1.79,0,2.16,0.83c0.37,0.82,0,1.79-0.83,2.16l-8.09,3.62c-0.83,0.37-1.79,0-2.16-0.83
				C150.16,410.47,150.43,409.6,151.11,409.17z"/>
		</g>
	</g>
	<g>
		<path style="fill:#FFFFFF;stroke:#263238;stroke-linecap:round;stroke-linejoin:round;stroke-miterlimit:10;" d="M50.7,220.11
			c-1.14-1.8-0.88-4.02,0.6-4.95c1.47-0.93,3.59-0.23,4.73,1.57c1.14,1.8,0.88,4.02-0.6,4.95C53.97,222.61,51.85,221.91,50.7,220.11
			z"/>
		<g>
			<path style="fill:#FFFFFF;stroke:#263238;stroke-miterlimit:10;" d="M43.69,220.73c0.07-0.04,0.14-0.08,0.21-0.11L52,217
				c0.82-0.37,1.79,0,2.16,0.83c0.37,0.82,0,1.79-0.83,2.16l-8.09,3.62c-0.83,0.37-1.79,0-2.16-0.83
				C42.74,222.03,43.02,221.16,43.69,220.73z"/>
		</g>
	</g>
	<g>
		<path style="fill:#FFFFFF;stroke:#263238;stroke-linecap:round;stroke-linejoin:round;stroke-miterlimit:10;" d="M447.82,268.02
			c-0.44,2.09-2.18,3.49-3.89,3.13c-1.71-0.36-2.73-2.34-2.29-4.43c0.44-2.09,2.18-3.49,3.89-3.13
			C447.24,263.95,448.26,265.94,447.82,268.02z"/>
		<g>
			<path style="fill:#FFFFFF;stroke:#263238;stroke-miterlimit:10;" d="M453.27,272.48c-0.08-0.02-0.15-0.04-0.23-0.07l-8.32-3.07
				c-0.85-0.31-1.28-1.25-0.97-2.1c0.31-0.85,1.25-1.28,2.1-0.97l8.32,3.07c0.85,0.31,1.28,1.25,0.97,2.1
				C454.86,272.21,454.05,272.64,453.27,272.48z"/>
		</g>
	</g>
	<g>
		<path style="fill:#FFFFFF;stroke:#263238;stroke-linecap:round;stroke-linejoin:round;stroke-miterlimit:10;" d="M394.97,424.75
			c-0.44,2.09-2.18,3.49-3.89,3.13c-1.7-0.36-2.73-2.34-2.29-4.43c0.44-2.09,2.18-3.49,3.89-3.13
			C394.38,420.68,395.41,422.66,394.97,424.75z"/>
		<g>
			<path style="fill:#FFFFFF;stroke:#263238;stroke-miterlimit:10;" d="M400.41,429.21c-0.08-0.02-0.15-0.04-0.23-0.07l-8.32-3.07
				c-0.85-0.31-1.28-1.25-0.97-2.1c0.31-0.85,1.25-1.28,2.1-0.97l8.32,3.07c0.85,0.31,1.28,1.25,0.97,2.1
				C402,428.94,401.2,429.37,400.41,429.21z"/>
		</g>
	</g>
	<path style="fill:#FFFFFF;stroke:#263238;stroke-linecap:round;stroke-linejoin:round;stroke-miterlimit:10;" d="M357.22,415.92
		l-4.57-2.23l-4.57,2.23l-1.13,5l3.16,4.01h5.07l3.16-4.01L357.22,415.92z M353.94,422.31h-2.57l-1.6-2.04l0.57-2.54l2.32-1.13
		l2.32,1.13l0.57,2.54L353.94,422.31z"/>
	<path style="fill:#FFFFFF;stroke:#263238;stroke-linecap:round;stroke-linejoin:round;stroke-miterlimit:10;" d="M434.57,174.32
		l-4.57-2.23l-4.57,2.23l-1.13,5l3.16,4.01h5.07l3.16-4.01L434.57,174.32z M431.29,180.71h-2.57l-1.6-2.04l0.57-2.54L430,175
		l2.32,1.13l0.57,2.54L431.29,180.71z"/>
	<path style="fill:#FFFFFF;stroke:#263238;stroke-linecap:round;stroke-linejoin:round;stroke-miterlimit:10;" d="M393.57,149.32
		l-4.57-2.23l-4.57,2.23l-1.13,5l3.16,4.01h5.07l3.16-4.01L393.57,149.32z M390.29,155.71h-2.57l-1.6-2.04l0.57-2.54L389,150
		l2.32,1.13l0.57,2.54L390.29,155.71z"/>
	<path style="fill:#FFFFFF;stroke:#263238;stroke-linecap:round;stroke-linejoin:round;stroke-miterlimit:10;" d="M152.25,456.19
		l-4.57-2.23l-4.57,2.23l-1.13,5l3.16,4.01h5.07l3.16-4.01L152.25,456.19z M148.97,462.58h-2.57l-1.6-2.04l0.57-2.54l2.32-1.13
		L150,458l0.57,2.54L148.97,462.58z"/>
	<path style="fill:#FFFFFF;stroke:#263238;stroke-linecap:round;stroke-linejoin:round;stroke-miterlimit:10;" d="M112.25,360.19
		l-4.57-2.23l-4.57,2.23l-1.13,5l3.16,4.01h5.07l3.16-4.01L112.25,360.19z M108.97,366.58h-2.57l-1.6-2.04l0.57-2.54l2.32-1.13
		L110,362l0.57,2.54L108.97,366.58z"/>
	<path style="fill:#FFFFFF;stroke:#263238;stroke-linecap:round;stroke-linejoin:round;stroke-miterlimit:10;" d="M76.28,234.61
		l-4.57-2.23l-4.57,2.23l-1.13,5l3.16,4.01h5.07l3.16-4.01L76.28,234.61z M73,241h-2.57l-1.6-2.04l0.57-2.54l2.32-1.13l2.32,1.13
		l0.57,2.54L73,241z"/>
	<path style="fill:#FFFFFF;stroke:#263238;stroke-linecap:round;stroke-linejoin:round;stroke-miterlimit:10;" d="M234.36,300.97
		l-4.57-2.23l-4.57,2.23l-1.13,5l3.16,4.01h5.07l3.16-4.01L234.36,300.97z M231.08,307.36h-2.57l-1.6-2.04l0.57-2.54l2.32-1.13
		l2.32,1.13l0.57,2.54L231.08,307.36z"/>
</g>
<g id="Arrows">
	<g>
		<g>
			<g>
				<polyline style="fill:none;stroke:#263238;stroke-linecap:round;stroke-linejoin:round;stroke-miterlimit:10;" points="
					30.12,79.36 186.61,79.36 186.61,119.31 				"/>
				<polyline style="fill:none;stroke:#263238;stroke-linecap:round;stroke-linejoin:round;stroke-miterlimit:10;" points="
					28.86,91.97 131.61,91.97 147.01,79.43 				"/>
				<polyline style="fill:none;stroke:#263238;stroke-linecap:round;stroke-linejoin:round;stroke-miterlimit:10;" points="
					162.89,79.43 148.64,62.32 29.49,62.32 				"/>
				<polyline style="fill:none;stroke:#263238;stroke-linecap:round;stroke-linejoin:round;stroke-miterlimit:10;" points="
					30.75,49.71 120.25,49.71 132.34,62.36 				"/>
				<polyline style="fill:none;stroke:#263238;stroke-linecap:round;stroke-linejoin:round;stroke-miterlimit:10;" points="
					124.66,79.24 116.47,72.42 30.12,72.42 				"/>
				<polyline style="fill:none;stroke:#263238;stroke-linecap:round;stroke-linejoin:round;stroke-miterlimit:10;" points="
					190.45,114.61 186.53,120.29 183.2,114.8 				"/>
				<polyline style="fill:none;stroke:#263238;stroke-linecap:round;stroke-linejoin:round;stroke-miterlimit:10;" points="
					30.12,102.64 162.8,102.64 162.8,119.6 				"/>
				<polyline style="fill:none;stroke:#263238;stroke-linecap:round;stroke-linejoin:round;stroke-miterlimit:10;" points="
					166.64,114.9 162.72,120.58 159.39,115.09 				"/>
				<polyline style="fill:none;stroke:#263238;stroke-linecap:round;stroke-linejoin:round;stroke-miterlimit:10;" points="
					125.81,55.59 204.18,55.59 204.18,119.89 				"/>
				<polyline style="fill:none;stroke:#263238;stroke-linecap:round;stroke-linejoin:round;stroke-miterlimit:10;" points="
					208.02,115.19 204.1,120.87 200.77,115.38 				"/>
			</g>
		</g>
		<g>
			<g>
				<polyline style="fill:none;stroke:#263238;stroke-linecap:round;stroke-linejoin:round;stroke-miterlimit:10;" points="
					469.88,79.36 313.39,79.36 313.39,119.31 				"/>
				<polyline style="fill:none;stroke:#263238;stroke-linecap:round;stroke-linejoin:round;stroke-miterlimit:10;" points="
					471.14,91.97 368.39,91.97 352.99,79.43 				"/>
				<polyline style="fill:none;stroke:#263238;stroke-linecap:round;stroke-linejoin:round;stroke-miterlimit:10;" points="
					337.11,79.43 351.36,62.32 470.51,62.32 				"/>
				<polyline style="fill:none;stroke:#263238;stroke-linecap:round;stroke-linejoin:round;stroke-miterlimit:10;" points="
					469.25,49.71 379.75,49.71 367.66,62.36 				"/>
				<polyline style="fill:none;stroke:#263238;stroke-linecap:round;stroke-linejoin:round;stroke-miterlimit:10;" points="
					375.34,79.24 383.53,72.42 469.88,72.42 				"/>
				<polyline style="fill:none;stroke:#263238;stroke-linecap:round;stroke-linejoin:round;stroke-miterlimit:10;" points="
					309.55,114.61 313.47,120.29 316.8,114.8 				"/>
				<polyline style="fill:none;stroke:#263238;stroke-linecap:round;stroke-linejoin:round;stroke-miterlimit:10;" points="
					469.88,102.64 337.2,102.64 337.2,119.6 				"/>
				<polyline style="fill:none;stroke:#263238;stroke-linecap:round;stroke-linejoin:round;stroke-miterlimit:10;" points="
					333.36,114.9 337.28,120.58 340.61,115.09 				"/>
				<polyline style="fill:none;stroke:#263238;stroke-linecap:round;stroke-linejoin:round;stroke-miterlimit:10;" points="
					374.19,55.59 295.82,55.59 295.82,119.89 				"/>
				<polyline style="fill:none;stroke:#263238;stroke-linecap:round;stroke-linejoin:round;stroke-miterlimit:10;" points="
					291.98,115.19 295.9,120.87 299.23,115.38 				"/>
			</g>
		</g>
		<g>
			<g>
				
					<line style="fill:none;stroke:#263238;stroke-linecap:round;stroke-linejoin:round;stroke-miterlimit:10;" x1="250.59" y1="15" x2="250.59" y2="119.78"/>
				<polyline style="fill:none;stroke:#263238;stroke-linecap:round;stroke-linejoin:round;stroke-miterlimit:10;" points="
					263.2,13.74 263.2,75.37 250.66,90.77 				"/>
				<polyline style="fill:none;stroke:#263238;stroke-linecap:round;stroke-linejoin:round;stroke-miterlimit:10;" points="
					250.66,106.65 233.56,92.4 233.56,14.37 				"/>
				<polyline style="fill:none;stroke:#263238;stroke-linecap:round;stroke-linejoin:round;stroke-miterlimit:10;" points="
					220.94,15.63 220.94,64.02 233.59,76.1 				"/>
				<polyline style="fill:none;stroke:#263238;stroke-linecap:round;stroke-linejoin:round;stroke-miterlimit:10;" points="
					250.47,68.42 243.65,60.23 243.65,15 				"/>
				<polyline style="fill:none;stroke:#263238;stroke-linecap:round;stroke-linejoin:round;stroke-miterlimit:10;" points="
					246.74,115.07 250.66,120.76 253.99,115.27 				"/>
				
					<line style="fill:none;stroke:#263238;stroke-linecap:round;stroke-linejoin:round;stroke-miterlimit:10;" x1="273.87" y1="15" x2="273.87" y2="119.78"/>
				<polyline style="fill:none;stroke:#263238;stroke-linecap:round;stroke-linejoin:round;stroke-miterlimit:10;" points="
					270.03,115.07 273.95,120.76 277.28,115.27 				"/>
				
					<line style="fill:none;stroke:#263238;stroke-linecap:round;stroke-linejoin:round;stroke-miterlimit:10;" x1="226.82" y1="69.57" x2="226.82" y2="119.78"/>
				<polyline style="fill:none;stroke:#263238;stroke-linecap:round;stroke-linejoin:round;stroke-miterlimit:10;" points="
					222.98,115.07 226.9,120.76 230.23,115.27 				"/>
			</g>
		</g>
	</g>
</g>
<g id="Text">
	<g>
		<g>
			<path style="fill:#263238;" d="M182.25,210.22v3.53h-8.62v12.56h10.59v3.58h-14.52v-35.3h14.52v3.58h-10.59v12.05H182.25z"/>
			<path style="fill:#263238;" d="M195.71,194.59c5.55,0,7.87,2.82,7.87,8.07v2.87c0,3.88-1.36,6.3-4.39,7.26
				c3.23,0.96,4.44,3.58,4.44,7.36v5.5c0,1.56,0.05,3.03,0.71,4.24h-3.98c-0.45-1.01-0.66-1.92-0.66-4.29v-5.55
				c0-3.98-1.87-5.24-5.14-5.24h-2.77v15.08h-3.93v-35.3H195.71z M194.71,211.23c3.13,0,4.99-1.01,4.99-4.84v-3.38
				c0-3.18-1.16-4.84-4.08-4.84h-3.83v13.06H194.71z"/>
			<path style="fill:#263238;" d="M215.58,194.59c5.55,0,7.87,2.82,7.87,8.07v2.87c0,3.88-1.36,6.3-4.39,7.26
				c3.23,0.96,4.44,3.58,4.44,7.36v5.5c0,1.56,0.05,3.03,0.71,4.24h-3.98c-0.45-1.01-0.66-1.92-0.66-4.29v-5.55
				c0-3.98-1.87-5.24-5.14-5.24h-2.77v15.08h-3.93v-35.3H215.58z M214.57,211.23c3.13,0,4.99-1.01,4.99-4.84v-3.38
				c0-3.18-1.16-4.84-4.08-4.84h-3.83v13.06H214.57z"/>
			<path style="fill:#263238;" d="M227.28,203.11c0-5.4,2.67-8.88,8.07-8.88c5.45,0,8.12,3.48,8.12,8.88v18.26
				c0,5.35-2.67,8.88-8.12,8.88c-5.4,0-8.07-3.53-8.07-8.88V203.11z M231.16,221.57c0,3.23,1.36,5.09,4.19,5.09
				c2.87,0,4.19-1.87,4.19-5.09v-18.66c0-3.18-1.31-5.09-4.19-5.09c-2.82,0-4.19,1.92-4.19,5.09V221.57z"/>
			<path style="fill:#263238;" d="M255.07,194.59c5.55,0,7.87,2.82,7.87,8.07v2.87c0,3.88-1.36,6.3-4.39,7.26
				c3.23,0.96,4.44,3.58,4.44,7.36v5.5c0,1.56,0.05,3.03,0.71,4.24h-3.98c-0.45-1.01-0.66-1.92-0.66-4.29v-5.55
				c0-3.98-1.87-5.24-5.14-5.24h-2.77v15.08h-3.93v-35.3H255.07z M254.06,211.23c3.13,0,4.99-1.01,4.99-4.84v-3.38
				c0-3.18-1.16-4.84-4.08-4.84h-3.83v13.06H254.06z"/>
			<path style="fill:#263238;" d="M289.21,222.78v7.11h-3.83v-7.11h-11.4v-3.58l10.94-24.61h4.29v24.61h2.82v3.58H289.21z
				 M277.61,219.2h7.77v-17.25L277.61,219.2z"/>
			<path style="fill:#263238;" d="M310.94,203.16c0,10.64-11.95,14.47-12,22.59v0.55h11.6v3.58h-15.48v-3.03
				c0-11.4,11.95-13.62,11.95-23.55c0-3.63-1.21-5.55-4.14-5.55c-2.87,0-4.13,2.07-4.13,5.19v3.13h-3.68v-2.87
				c0-5.4,2.47-8.98,7.92-8.98C308.47,194.24,310.94,197.77,310.94,203.16z"/>
			<path style="fill:#263238;" d="M330.41,203.11v18c0,5.6-2.52,9.13-8.17,9.13c-5.4,0-7.97-3.48-7.97-8.88v-0.66h3.68v0.91
				c0,3.18,1.36,5.04,4.19,5.04c3.03,0,4.34-1.92,4.34-5.65v-7.92c-0.96,2.42-2.87,3.73-5.7,3.73c-4.54,0-6.56-3.23-6.56-8.32v-5.4
				c0-5.4,2.62-8.88,8.07-8.88C327.73,194.24,330.41,197.72,330.41,203.11z M318.1,202.91v5.29c0,3.18,1.36,5.09,4.19,5.09
				c2.87,0,4.19-1.92,4.19-5.09v-5.29c0-3.23-1.31-5.09-4.19-5.09C319.46,197.82,318.1,199.68,318.1,202.91z"/>
		</g>
		<g>
			<path style="fill:#263238;" d="M173.33,258.23v-17.31h-3.74v-1.1h8.71v1.1h-3.76v17.31H173.33z"/>
			<path style="fill:#263238;" d="M179.72,244.31c0-2.68,1.24-4.66,4.02-4.66c2.84,0,4.08,1.97,4.08,4.66v9.42
				c0,2.68-1.24,4.66-4.08,4.66c-2.79,0-4.02-1.97-4.02-4.66V244.31z M180.93,253.81c0,2,0.79,3.47,2.81,3.47
				c2.05,0,2.87-1.47,2.87-3.47v-9.58c0-2-0.82-3.47-2.87-3.47c-2.03,0-2.81,1.47-2.81,3.47V253.81z"/>
			<path style="fill:#263238;" d="M189.74,244.31c0-2.68,1.24-4.66,4.02-4.66c2.84,0,4.08,1.97,4.08,4.66v9.42
				c0,2.68-1.24,4.66-4.08,4.66c-2.79,0-4.02-1.97-4.02-4.66V244.31z M190.95,253.81c0,2,0.79,3.47,2.81,3.47
				c2.05,0,2.87-1.47,2.87-3.47v-9.58c0-2-0.82-3.47-2.87-3.47c-2.03,0-2.81,1.47-2.81,3.47V253.81z"/>
			<path style="fill:#263238;" d="M210.1,258.2h-1.21L205,241.92v16.31h-1.08v-18.41h1.74l3.87,16.28l3.84-16.28h1.74v18.41h-1.16
				v-16.36L210.1,258.2z"/>
			<path style="fill:#263238;" d="M218.97,254.15l-0.92,4.08h-1.1l4.02-18.44h1.76l4.1,18.44h-1.21l-0.92-4.08H218.97z
				 M219.15,253.1h5.37l-2.71-11.92L219.15,253.1z"/>
			<path style="fill:#263238;" d="M229.78,258.23h-1.1v-18.41h1.58l5.52,15.55v-15.55h1.11v18.41h-1.34l-5.76-16.42V258.23z"/>
			<path style="fill:#263238;" d="M242.74,251.15l-4.13-11.34h1.26l3.52,9.68l3.53-9.68h1.18l-4.16,11.34v7.08h-1.21V251.15z"/>
			<path style="fill:#263238;" d="M257.79,239.81c2.82,0,3.95,1.55,3.95,4.16v1.6c0,2.16-0.84,3.39-2.66,3.81
				c1.89,0.42,2.66,1.76,2.66,3.76v2.87c0,0.76,0.05,1.6,0.45,2.21h-1.26c-0.32-0.55-0.39-1.21-0.39-2.21v-2.89
				c0-2.45-1.34-3.13-3.45-3.13h-1.92v8.23h-1.21v-18.41H257.79z M257.11,248.89c2.16,0,3.42-0.6,3.42-3.08v-1.74
				c0-1.97-0.76-3.16-2.76-3.16h-2.6v7.97H257.11z"/>
			<path style="fill:#263238;" d="M270.34,248.34v1.1h-5.02v7.68h6.05v1.11h-7.26v-18.41h7.26v1.1h-6.05v7.42H270.34z"/>
			<path style="fill:#263238;" d="M281.36,244.31v9.42c0,1.26-0.26,2.37-0.87,3.18c0.32,0.55,0.79,0.74,1.45,0.74h0.29v1.08h-0.32
				c-1.03,0-1.74-0.34-2.18-1.08c-0.6,0.45-1.39,0.74-2.42,0.74c-2.81,0-4.05-1.97-4.05-4.66v-9.42c0-2.68,1.24-4.66,4.05-4.66
				C280.12,239.65,281.36,241.63,281.36,244.31z M274.46,244.23v9.58c0,2,0.82,3.47,2.84,3.47s2.84-1.47,2.84-3.47v-9.58
				c0-2-0.82-3.47-2.84-3.47S274.46,242.23,274.46,244.23z"/>
			<path style="fill:#263238;" d="M284.72,253.78c0,1.97,0.74,3.5,2.76,3.5c2.03,0,2.76-1.53,2.76-3.5v-13.97h1.13v13.91
				c0,2.63-1.1,4.66-3.92,4.66c-2.81,0-3.95-2.03-3.95-4.66v-13.91h1.21V253.78z"/>
			<path style="fill:#263238;" d="M299.69,248.34v1.1h-5.02v7.68h6.05v1.11h-7.26v-18.41h7.26v1.1h-6.05v7.42H299.69z"/>
			<path style="fill:#263238;" d="M310.45,244.26v0.39h-1.16v-0.47c0-1.95-0.74-3.42-2.74-3.42c-2,0-2.74,1.45-2.74,3.39
				c0,4.47,6.66,4.55,6.66,9.63c0,2.66-1.16,4.6-3.97,4.6c-2.81,0-3.97-1.95-3.97-4.6v-0.95h1.16v1.03c0,1.97,0.76,3.39,2.79,3.39
				c2.03,0,2.79-1.42,2.79-3.39c0-4.42-6.66-4.5-6.66-9.63c0-2.76,1.21-4.55,3.92-4.58C309.32,239.65,310.45,241.6,310.45,244.26z"
				/>
			<path style="fill:#263238;" d="M315.52,258.23v-17.31h-3.74v-1.1h8.71v1.1h-3.76v17.31H315.52z"/>
			<path style="fill:#263238;" d="M329.75,244.26v0.39h-1.16v-0.47c0-1.95-0.74-3.42-2.74-3.42c-2,0-2.74,1.45-2.74,3.39
				c0,4.47,6.66,4.55,6.66,9.63c0,2.66-1.16,4.6-3.97,4.6c-2.81,0-3.97-1.95-3.97-4.6v-0.95h1.16v1.03c0,1.97,0.76,3.39,2.79,3.39
				c2.03,0,2.79-1.42,2.79-3.39c0-4.42-6.66-4.5-6.66-9.63c0-2.76,1.21-4.55,3.92-4.58C328.62,239.65,329.75,241.6,329.75,244.26z"
				/>
		</g>
		<g>
			<path style="fill:#263238;stroke:#263238;stroke-miterlimit:10;" d="M252.02,149.11l-17.5,30.31c-0.47,0.82,0.12,1.84,1.06,1.84
				h35c0.94,0,1.53-1.02,1.06-1.84l-17.5-30.31C253.67,148.29,252.49,148.29,252.02,149.11z"/>
			<path style="fill:#FFFFFF;stroke:#263238;stroke-miterlimit:10;" d="M252.02,152.77l-14.33,24.82c-0.47,0.82,0.12,1.84,1.06,1.84
				h28.66c0.94,0,1.53-1.02,1.06-1.84l-14.33-24.82C253.67,151.95,252.49,151.95,252.02,152.77z"/>
			<g>
				<g>
					<path style="fill:#263238;" d="M251.91,166.85v-9.41h2.23v9.41l-0.29,6.18h-1.66L251.91,166.85z M254.08,174.68v2.77h-2.14
						v-2.77H254.08z"/>
				</g>
			</g>
		</g>
	</g>
</g>
</svg>
