<?xml version="1.0" encoding="utf-8"?>
<!-- Generator: Adobe Illustrator 24.0.0, SVG Export Plug-In . SVG Version: 6.00 Build 0)  -->
<svg version="1.1" xmlns="http://www.w3.org/2000/svg" xmlns:xlink="http://www.w3.org/1999/xlink" x="0px" y="0px"
	 viewBox="0 0 500 500" style="enable-background:new 0 0 500 500;" xml:space="preserve">
<g id="Background_Simple">
	<g>
		<path style="fill:#0084FF;" d="M58.88,272.43c0,0-0.48,70.81,56.64,119.44c57.12,48.64,138.68,54.06,204.65,60.2
			c65.96,6.14,118.22-30.09,128.09-86.59c9.86-56.5-40.02-74.41-64.93-139.64s-21.64-86.38-78.11-127.52
			c-56.47-41.15-148.18-19.05-198.41,47.75C56.58,212.87,58.88,272.43,58.88,272.43z"/>
		<path style="opacity:0.7;fill:#FFFFFF;" d="M58.88,272.43c0,0-0.48,70.81,56.64,119.44c57.12,48.64,138.68,54.06,204.65,60.2
			c65.96,6.14,118.22-30.09,128.09-86.59c9.86-56.5-40.02-74.41-64.93-139.64s-21.64-86.38-78.11-127.52
			c-56.47-41.15-148.18-19.05-198.41,47.75C56.58,212.87,58.88,272.43,58.88,272.43z"/>
	</g>
</g>
<g id="Planet_3">
	<g>
		
			<ellipse id="XMLID_19_" transform="matrix(0.5769 -0.8168 0.8168 0.5769 -33.4931 435.5021)" style="fill:#263238;" cx="403.66" cy="250.08" rx="15.34" ry="15.34"/>
		<g>
			<path style="fill:#0095FF;" d="M411.38,241.85l7.44,10.44c0.3-2.05,0.17-4.11-0.34-6.08L411.38,241.85z"/>
			<path style="fill:#0095FF;" d="M395.78,236.94l17.68,24.95c1.43-1.19,2.66-2.67,3.61-4.39l-14.83-22.68
				C399.96,235.03,397.75,235.76,395.78,236.94z"/>
			<path style="fill:#0095FF;" d="M403.09,265.4l-7.68-11l4,10.42C400.63,265.17,401.86,265.35,403.09,265.4z"/>
			<path style="fill:#0095FF;" d="M409.33,264.32l-17.56-23.93c-0.17,0.21-0.33,0.44-0.49,0.66l12.67,24.37
				C405.8,265.38,407.62,265,409.33,264.32z"/>
		</g>
	</g>
</g>
<g id="PLanet_2">
	<g>
		<g>
			<defs>
				
					<ellipse id="XMLID_1_" transform="matrix(0.9955 -0.0951 0.0951 0.9955 -37.8384 25.7759)" cx="251.47" cy="409.82" rx="24.74" ry="24.74"/>
			</defs>
			<use xlink:href="#XMLID_1_"  style="overflow:visible;fill:#263238;"/>
			<clipPath id="XMLID_11_">
				<use xlink:href="#XMLID_1_"  style="overflow:visible;"/>
			</clipPath>
			<g style="clip-path:url(#XMLID_11_);">
				<path style="fill:#0095FF;" d="M273.78,420.5l-16.88-26.48l19.17,18.42c0.06-0.51,0.09-1.03,0.12-1.55l-22.72-25.74
					c-1.92-0.16-3.88-0.09-5.82,0.22l4.56,7.25l-7.54-6.6c-0.01,0-0.02,0.01-0.02,0.01l5.98,10.86l-12.13-8.14
					c-0.3,0.19-0.6,0.38-0.89,0.58l22.51,24.98l-17.86-13.59l6.35,10l-9.25-6.4l24.23,27.05c3.02-1.69,5.57-3.94,7.57-6.56
					l-4.93-8.23l6.12,6.52C272.87,422.27,273.35,421.4,273.78,420.5z"/>
				<path style="fill:#0095FF;" d="M258.77,433.45l-19.35-22.32l8.6,13.27l-21.2-16.62c-0.34,4.09,0.33,8.32,2.16,12.32
					c3.68,8.03,11.11,13.15,19.27,14.23l-7.64-6.79l11.85,6.99C254.56,434.45,256.68,434.09,258.77,433.45z"/>
				<path style="fill:#0095FF;" d="M260.69,386.87l10.85,12.61l-2.2-4.81l3.51,2.7C270,392.47,265.67,388.86,260.69,386.87z"/>
				<path style="fill:#0095FF;" d="M235.46,406.36l-5.86-8.1c-1.21,2.29-2.05,4.75-2.5,7.3L235.46,406.36z"/>
			</g>
		</g>
		<path style="fill:#263238;" d="M288.23,393.36c-1.8-3.94-9.77-4.48-20.38-2.08c0.67,0.59,1.3,1.22,1.91,1.89
			c7.92-1.81,13.57-1.66,14.73,0.89c2.06,4.51-10.79,14.81-28.7,23c-17.91,8.2-34.11,11.19-36.17,6.68
			c-1.06-2.32,1.84-6.18,7.35-10.5c-0.12-0.88-0.2-1.77-0.22-2.65c-7.69,6.01-11.78,11.84-10.09,15.52
			c2.86,6.24,21.19,3.97,40.96-5.07C277.38,411.99,291.08,399.6,288.23,393.36z"/>
	</g>
</g>
<g id="Planet_1">
	<g>
		
			<ellipse transform="matrix(0.2322 -0.9727 0.9727 0.2322 -66.6298 264.0585)" style="fill:#0095FF;" cx="133.94" cy="174.23" rx="24.43" ry="24.43"/>
		<g>
			<path style="fill:#263238;" d="M139.7,156.16c1.74-1.6,3.65-2.74,5.59-3.55c-1.96-1.03-4.07-1.81-6.3-2.28
				c-2.15,1.45-4.34,3.12-6.44,5.03c-8.74,7.94-6.35,7.15-19.06,11.91c-1.23,0.46-2.35,1.01-3.37,1.61c-0.38,1.72-0.6,3.5-0.6,5.34
				c0,3.18,0.63,6.21,1.73,8.99c4.54-1.38,10.58-3.62,13.36-6.41C129.37,172.05,130.17,164.9,139.7,156.16z"/>
			<path style="fill:#263238;" d="M116.19,190.98c1.84,1.95,3.99,3.61,6.39,4.87c4.55-3.17,6.66-6.55,13.15-9.5
				c5.69-2.59,15.09-3.15,20.95-3.23c1.08-2.76,1.69-5.74,1.69-8.88c0-0.42-0.04-0.83-0.06-1.25c-4.05,0.31-11.93,1.32-20.19,4.63
				C128.87,181.3,124.39,187.85,116.19,190.98z"/>
			<path style="fill:#263238;" d="M140.49,165.69c4.31,2.16,10.96,1.03,16.15-0.44c-0.99-2.51-2.38-4.81-4.1-6.83
				C145.65,159.71,134.51,162.7,140.49,165.69z"/>
		</g>
	</g>
</g>
<g id="Text">
	<g>
		<g>
			<path style="fill:#263238;" d="M145.93,368.3l0.5-0.84c1.05,1.1,3.01,1.93,5.07,1.93c3.07,0,4.44-1.34,4.44-3.01
				c0-4.61-9.6-1.85-9.6-7.51c0-2.17,1.67-4.09,5.45-4.09c1.69,0,3.45,0.53,4.63,1.38l-0.42,0.9c-1.27-0.88-2.83-1.3-4.22-1.3
				c-2.99,0-4.33,1.38-4.33,3.07c0,4.61,9.6,1.89,9.6,7.47c0,2.17-1.74,4.06-5.54,4.06C149.25,370.39,147.05,369.53,145.93,368.3z"
				/>
			<path style="fill:#263238;" d="M170.2,364.81h-9.86c0.11,2.72,2.11,4.57,4.85,4.57c1.45,0,2.79-0.53,3.67-1.6l0.64,0.73
				c-1.01,1.23-2.59,1.87-4.33,1.87c-3.47,0-5.91-2.42-5.91-5.82c0-3.4,2.35-5.82,5.49-5.82c3.14,0,5.47,2.37,5.47,5.78
				C170.23,364.59,170.2,364.7,170.2,364.81z M160.36,363.95h8.79c-0.15-2.48-1.95-4.26-4.39-4.26
				C162.32,359.69,160.54,361.45,160.36,363.95z"/>
			<path style="fill:#263238;" d="M179.06,358.72v1.08c-0.09,0-0.18-0.02-0.26-0.02c-2.55,0-4.06,1.69-4.06,4.52v5.97h-1.1v-11.47
				h1.05v2.5C175.39,359.65,176.9,358.72,179.06,358.72z"/>
			<path style="fill:#263238;" d="M191.82,358.81l-5.18,11.47h-1.12l-5.16-11.47h1.16l4.57,10.26l4.61-10.26H191.82z"/>
			<path style="fill:#263238;" d="M193.86,355.14c0-0.48,0.4-0.9,0.9-0.9c0.51,0,0.9,0.4,0.9,0.88c0,0.51-0.4,0.9-0.9,0.9
				C194.25,356.02,193.86,355.63,193.86,355.14z M194.21,358.81h1.1v11.47h-1.1V358.81z"/>
			<path style="fill:#263238;" d="M198.69,364.54c0-3.43,2.44-5.82,5.8-5.82c1.82,0,3.4,0.7,4.35,2.11l-0.81,0.59
				c-0.83-1.16-2.11-1.71-3.54-1.71c-2.7,0-4.68,1.93-4.68,4.83s1.98,4.83,4.68,4.83c1.43,0,2.7-0.55,3.54-1.71l0.81,0.59
				c-0.94,1.38-2.53,2.11-4.35,2.11C201.13,370.36,198.69,367.95,198.69,364.54z"/>
			<path style="fill:#263238;" d="M221.62,364.81h-9.86c0.11,2.72,2.11,4.57,4.85,4.57c1.45,0,2.79-0.53,3.67-1.6l0.64,0.73
				c-1.01,1.23-2.59,1.87-4.33,1.87c-3.47,0-5.91-2.42-5.91-5.82c0-3.4,2.35-5.82,5.49-5.82s5.47,2.37,5.47,5.78
				C221.64,364.59,221.62,364.7,221.62,364.81z M211.78,363.95h8.79c-0.15-2.48-1.96-4.26-4.39-4.26
				C213.74,359.69,211.96,361.45,211.78,363.95z"/>
			<path style="fill:#263238;" d="M230.91,363.75v-8.85h1.12v8.81c0,3.84,1.85,5.64,5.05,5.64c3.21,0,5.03-1.8,5.03-5.64v-8.81h1.12
				v8.85c0,4.39-2.35,6.63-6.17,6.63C233.24,370.39,230.91,368.15,230.91,363.75z"/>
			<path style="fill:#263238;" d="M258.37,363.58v6.7h-1.1v-6.61c0-2.59-1.38-3.95-3.71-3.95c-2.7,0-4.35,1.74-4.35,4.46v6.11h-1.1
				v-11.47h1.05v2.48c0.77-1.6,2.37-2.57,4.55-2.57C256.5,358.72,258.37,360.37,258.37,363.58z"/>
			<path style="fill:#263238;" d="M271.17,363.01v7.27h-1.05v-2.04c-0.73,1.32-2.13,2.13-4.13,2.13c-2.57,0-4.13-1.32-4.13-3.27
				c0-1.73,1.1-3.21,4.28-3.21h3.93v-0.92c0-2.13-1.16-3.27-3.4-3.27c-1.58,0-3.01,0.59-3.95,1.45l-0.55-0.79
				c1.14-1.01,2.81-1.62,4.59-1.62C269.59,358.72,271.17,360.17,271.17,363.01z M270.08,366.89v-2.15h-3.91
				c-2.37,0-3.21,0.99-3.21,2.31c0,1.49,1.16,2.42,3.18,2.42C268.08,369.46,269.42,368.54,270.08,366.89z"/>
			<path style="fill:#263238;" d="M284.68,358.81l-5.18,11.47h-1.12l-5.16-11.47h1.16l4.57,10.26l4.61-10.26H284.68z"/>
			<path style="fill:#263238;" d="M295,363.01v7.27h-1.05v-2.04c-0.73,1.32-2.13,2.13-4.13,2.13c-2.57,0-4.13-1.32-4.13-3.27
				c0-1.73,1.1-3.21,4.28-3.21h3.93v-0.92c0-2.13-1.16-3.27-3.4-3.27c-1.58,0-3.01,0.59-3.95,1.45l-0.55-0.79
				c1.14-1.01,2.81-1.62,4.59-1.62C293.42,358.72,295,360.17,295,363.01z M293.91,366.89v-2.15H290c-2.37,0-3.21,0.99-3.21,2.31
				c0,1.49,1.16,2.42,3.18,2.42C291.91,369.46,293.25,368.54,293.91,366.89z"/>
			<path style="fill:#263238;" d="M299.18,355.14c0-0.48,0.4-0.9,0.9-0.9c0.51,0,0.9,0.4,0.9,0.88c0,0.51-0.4,0.9-0.9,0.9
				C299.57,356.02,299.18,355.63,299.18,355.14z M299.53,358.81h1.1v11.47h-1.1V358.81z"/>
			<path style="fill:#263238;" d="M305.26,353.98h1.1v16.3h-1.1V353.98z"/>
			<path style="fill:#263238;" d="M319.27,363.01v7.27h-1.05v-2.04c-0.73,1.32-2.13,2.13-4.13,2.13c-2.57,0-4.13-1.32-4.13-3.27
				c0-1.73,1.1-3.21,4.28-3.21h3.93v-0.92c0-2.13-1.16-3.27-3.4-3.27c-1.58,0-3.01,0.59-3.95,1.45l-0.55-0.79
				c1.14-1.01,2.81-1.62,4.59-1.62C317.69,358.72,319.27,360.17,319.27,363.01z M318.18,366.89v-2.15h-3.91
				c-2.37,0-3.21,0.99-3.21,2.31c0,1.49,1.16,2.42,3.18,2.42C316.18,369.46,317.52,368.54,318.18,366.89z"/>
			<path style="fill:#263238;" d="M335.22,364.54c0,3.43-2.44,5.82-5.67,5.82c-2.06,0-3.8-1.03-4.7-2.79v2.7h-1.05v-16.3h1.1v7.45
				c0.92-1.71,2.64-2.7,4.66-2.7C332.78,358.72,335.22,361.1,335.22,364.54z M334.12,364.54c0-2.88-2-4.83-4.63-4.83
				c-2.64,0-4.61,1.96-4.61,4.83c0,2.88,1.98,4.83,4.61,4.83C332.12,369.38,334.12,367.42,334.12,364.54z"/>
			<path style="fill:#263238;" d="M338.63,353.98h1.1v16.3h-1.1V353.98z"/>
			<path style="fill:#263238;" d="M354.04,364.81h-9.86c0.11,2.72,2.11,4.57,4.85,4.57c1.45,0,2.79-0.53,3.67-1.6l0.64,0.73
				c-1.01,1.23-2.59,1.87-4.33,1.87c-3.47,0-5.91-2.42-5.91-5.82c0-3.4,2.35-5.82,5.49-5.82c3.14,0,5.47,2.37,5.47,5.78
				C354.07,364.59,354.04,364.7,354.04,364.81z M344.2,363.95h8.79c-0.15-2.48-1.96-4.26-4.39-4.26
				C346.16,359.69,344.38,361.45,344.2,363.95z"/>
		</g>
		<path style="fill:#263238;" d="M200.39,297.85c0,17.37-12.75,32.5-40.77,32.5c-13.59,0-27.88-3.78-37.41-10.51l8.97-17.37
			c7.43,5.6,17.65,8.83,27.88,8.83c11.35,0,18.35-4.76,18.35-12.75c0-7.71-5.04-12.75-22.84-12.75H129.5l5.04-55.2h59.82v18.21
			h-40.91l-1.54,18.63h7.99C188.9,267.44,200.39,280.47,200.39,297.85z M209.63,279.63c0-32.36,17.93-50.72,42.03-50.72
			c24.24,0,42.03,18.35,42.03,50.72s-17.79,50.72-42.03,50.72C227.56,330.35,209.63,312,209.63,279.63z M270.85,279.63
			c0-22.28-7.84-31.52-19.19-31.52c-11.21,0-19.05,9.25-19.05,31.52c0,22.28,7.85,31.52,19.05,31.52
			C263.01,311.15,270.85,301.91,270.85,279.63z M375.79,298.69c0,16.53-12.75,31.66-40.63,31.66c-13.73,0-27.88-3.78-37.41-10.51
			l8.83-17.37c7.43,5.6,17.79,8.83,28.02,8.83c11.35,0,18.35-4.62,18.35-12.61c0-7.42-5.46-12.05-18.35-12.05h-10.37v-14.99
			l20.18-22.84h-41.75V230.6h68.65v14.71l-22.14,25.22C366.82,273.33,375.79,284.25,375.79,298.69z"/>
	</g>
</g>
<g id="Character">
	<g>
		<g>
			
				<path style="fill:#FFFFFF;stroke:#263238;stroke-width:1.1915;stroke-linecap:round;stroke-linejoin:round;stroke-miterlimit:10;" d="
				M325.24,82.79L325.24,82.79c-1.03-1.63-0.54-3.78,1.09-4.81l5.66-3.57c1.63-1.03,3.78-0.54,4.81,1.09l0,0
				c1.03,1.63,0.54,3.78-1.09,4.81l-5.66,3.57C328.42,84.9,326.26,84.42,325.24,82.79z"/>
			<g>
				<g>
					<defs>
						<path id="XMLID_9_" d="M322.16,107.29c0,0-4.14-6.14-9.85-9.82c-5.72-3.69-15.55-8.05-15.55-8.05l-3.24-18.02
							c0,0,5.37-5.09,8.29-9.8c2.92-4.71,1.95-7.87,0.13-11.13c-1.83-3.26-4.46-1.14-4.85,0.34c-0.38,1.49-0.52,4.75-0.52,4.75
							s-1.75-11.99-2.76-14.73c-1.01-2.73-4.85-0.11-4.51,0.81c0,0-1.16-3.4-3.56-3.45c-2.4-0.04-3.06,4.04-3.06,4.04
							s-3.07-1.42-4.79,0.36c-1.72,1.78-0.9,6.24-0.9,6.24s-2.73,1.01-3.16,4.9c-0.43,3.89-0.08,10.7,1.03,12.57
							c1.11,1.87,1.44,2.78,1.44,2.78c-1.36,16.24-1.31,15.17-1.71,21.65c-0.28,4.56,2.71,15.16,7.04,19.57
							c4.33,4.41,19.64,12.2,19.64,12.2S317.23,118.33,322.16,107.29z"/>
					</defs>
					<use xlink:href="#XMLID_9_"  style="overflow:visible;fill:#FFFFFF;"/>
					<clipPath id="XMLID_12_">
						<use xlink:href="#XMLID_9_"  style="overflow:visible;"/>
					</clipPath>
					<path style="clip-path:url(#XMLID_12_);fill:#009DFF;" d="M301.26,122.48c0,0,15.97-4.15,20.9-15.2c0,0-0.32-0.47-0.89-1.21
						l-4.16-3.47c0,0-8.78,0.65-17.56,2.6c-8.78,1.95-15.61-2.28-18.21-12.03c-2.6-9.76-5.04-24.11-5.04-24.11l0,0v0
						c-1.36,16.24-1.31,15.17-1.71,21.65c-0.28,4.56,2.71,15.16,7.04,19.57C285.94,114.69,301.26,122.48,301.26,122.48z"/>
					<path style="opacity:0.5;clip-path:url(#XMLID_12_);fill:#FFFFFF;" d="M301.26,122.48c0,0,15.97-4.15,20.9-15.2
						c0,0-0.32-0.47-0.89-1.21l-4.16-3.47c0,0-8.78,0.65-17.56,2.6c-8.78,1.95-15.61-2.28-18.21-12.03
						c-2.6-9.76-5.04-24.11-5.04-24.11l0,0v0c-1.36,16.24-1.31,15.17-1.71,21.65c-0.28,4.56,2.71,15.16,7.04,19.57
						C285.94,114.69,301.26,122.48,301.26,122.48z"/>
					
						<use xlink:href="#XMLID_9_"  style="overflow:visible;fill:none;stroke:#263238;stroke-width:1.1915;stroke-linecap:round;stroke-linejoin:round;stroke-miterlimit:10;"/>
				</g>
				
					<path style="fill:#FFFFFF;stroke:#263238;stroke-width:1.1915;stroke-linecap:round;stroke-linejoin:round;stroke-miterlimit:10;" d="
					M295.5,82.42l-1.98-11.03c0,0,5.37-5.09,8.29-9.8c2.92-4.71,1.95-7.87,0.13-11.13c-1.83-3.26-4.46-1.14-4.85,0.34
					c-0.38,1.49-0.52,4.75-0.52,4.75s-1.75-11.99-2.76-14.73c-1.01-2.73-4.85-0.11-4.51,0.81c0,0-1.16-3.4-3.56-3.45
					s-3.06,4.04-3.06,4.04s-3.07-1.42-4.79,0.36c-1.72,1.78-0.9,6.24-0.9,6.24s-2.73,1.01-3.16,4.9c-0.43,3.89-0.08,10.7,1.03,12.57
					c1.11,1.87,1.44,2.78,1.44,2.78c-0.6,7.18-0.92,10.97-1.13,13.53L295.5,82.42z"/>
				
					<path style="fill:#FFFFFF;stroke:#263238;stroke-width:1.1915;stroke-linecap:round;stroke-linejoin:round;stroke-miterlimit:10;" d="
					M279.54,107.54c0.39,0.62,0.79,1.21,1.21,1.74c4.22-3.52,13.72-11.99,17.96-19.27c-1.2-0.38-1.96-0.59-1.96-0.59
					S287.91,100.96,279.54,107.54z"/>
				<g>
					
						<path style="fill:none;stroke:#263238;stroke-width:1.1915;stroke-linecap:round;stroke-linejoin:round;stroke-miterlimit:10;" d="
						M296.56,55.55c0,0-9.46-0.35-10.45,7.62"/>
					
						<line style="fill:none;stroke:#263238;stroke-width:1.1915;stroke-linecap:round;stroke-linejoin:round;stroke-miterlimit:10;" x1="289.29" y1="41.63" x2="289.61" y2="51.68"/>
					
						<line style="fill:none;stroke:#263238;stroke-width:1.1915;stroke-linecap:round;stroke-linejoin:round;stroke-miterlimit:10;" x1="282.67" y1="42.22" x2="283.32" y2="51.31"/>
					
						<line style="fill:none;stroke:#263238;stroke-width:1.1915;stroke-linecap:round;stroke-linejoin:round;stroke-miterlimit:10;" x1="276.98" y1="48.82" x2="278" y2="54.49"/>
					
						<path style="fill:none;stroke:#263238;stroke-width:1.1915;stroke-linecap:round;stroke-linejoin:round;stroke-miterlimit:10;" d="
						M291.51,51.21c0,0-10.67,1.77-14.78,5.29"/>
				</g>
				<g>
					<defs>
						<path id="XMLID_8_" d="M289.03,114.24c3.48-2.98,3.21-9.02-0.62-13.49c-3.7-4.32-9.34-5.59-12.86-2.98
							c1.19,4.6,3.37,9.76,6.07,12.51c1.33,1.35,3.69,3.03,6.33,4.7C288.33,114.76,288.7,114.53,289.03,114.24z"/>
					</defs>
					<use xlink:href="#XMLID_8_"  style="overflow:visible;fill:#009DFF;"/>
					<clipPath id="XMLID_13_">
						<use xlink:href="#XMLID_8_"  style="overflow:visible;"/>
					</clipPath>
					
						<use xlink:href="#XMLID_8_"  style="overflow:visible;fill:none;stroke:#263238;stroke-width:1.1915;stroke-linecap:round;stroke-linejoin:round;stroke-miterlimit:10;"/>
				</g>
			</g>
			<g>
				<defs>
					<path id="XMLID_7_" d="M282.21,125.93c0,0-4.47,0.47-5.88,1.68c-1.41,1.2-12.14,10.38-13.88,15.83s4.87,21.73,12.1,28.04
						c7.22,6.31,16.23,12.93,23.89,11.55c7.66-1.37,16.46-13.16,17.37-16.38c0.91-3.21-29.06-40.04-29.06-40.04
						S284.62,124.48,282.21,125.93z"/>
				</defs>
				<use xlink:href="#XMLID_7_"  style="overflow:visible;fill:#FFFFFF;"/>
				<clipPath id="XMLID_14_">
					<use xlink:href="#XMLID_7_"  style="overflow:visible;"/>
				</clipPath>
				<path style="clip-path:url(#XMLID_14_);fill:#009DFF;" d="M282.21,125.93c0,0-0.87,0.09-1.97,0.3l1.04,1.69
					c0,0-0.92,9.49,5.58,20.22c6.5,10.73,17.89,17.56,17.56,21.47c-0.33,3.9,0.98,9.11-8.78,8.46
					c-9.76-0.65-20.16-17.24-23.74-25.37c-1.86-4.23-3.46-10.65-5.29-15.62c-1.94,2.25-3.57,4.52-4.16,6.36
					c-1.74,5.45,4.87,21.73,12.1,28.04c7.22,6.31,16.23,12.93,23.89,11.55c7.66-1.37,16.46-13.16,17.37-16.38
					c0.91-3.21-29.06-40.04-29.06-40.04S284.62,124.48,282.21,125.93z"/>
				<path style="opacity:0.5;clip-path:url(#XMLID_14_);fill:#FFFFFF;" d="M282.21,125.93c0,0-0.87,0.09-1.97,0.3l1.04,1.69
					c0,0-0.92,9.49,5.58,20.22c6.5,10.73,17.89,17.56,17.56,21.47c-0.33,3.9,0.98,9.11-8.78,8.46
					c-9.76-0.65-20.16-17.24-23.74-25.37c-1.86-4.23-3.46-10.65-5.29-15.62c-1.94,2.25-3.57,4.52-4.16,6.36
					c-1.74,5.45,4.87,21.73,12.1,28.04c7.22,6.31,16.23,12.93,23.89,11.55c7.66-1.37,16.46-13.16,17.37-16.38
					c0.91-3.21-29.06-40.04-29.06-40.04S284.62,124.48,282.21,125.93z"/>
				
					<use xlink:href="#XMLID_7_"  style="overflow:visible;fill:none;stroke:#263238;stroke-width:1.1915;stroke-linecap:round;stroke-linejoin:round;stroke-miterlimit:10;"/>
			</g>
			<g>
				<g>
					<defs>
						<path id="XMLID_6_" d="M320.39,104.12c0,0-4.74-1.6-11.8,1.4c-7.05,2.99-24.73,13.38-27.32,22.4
							c-1.7,5.94,17.03,33.62,28.69,38.18c3.15,1.23,5.99,2.55,12.43-2.68c6.44-5.24,19.91-19.79,23.44-26.2
							c3.53-6.42-1.96-11.19-3.85-14.02C340.11,120.36,325.35,102,320.39,104.12z"/>
					</defs>
					<use xlink:href="#XMLID_6_"  style="overflow:visible;fill:#FFFFFF;"/>
					<clipPath id="XMLID_15_">
						<use xlink:href="#XMLID_6_"  style="overflow:visible;"/>
					</clipPath>
					<g style="clip-path:url(#XMLID_15_);">
						<path style="fill:#009DFF;" d="M345.88,137.12l-12.19,3.86c0,0-12.68,14.96-17.24,18.86s-18.86-5.53-23.74-10.08
							c-0.52-0.49-1-0.93-1.44-1.34c5.82,7.91,13.08,15.48,18.7,17.67c3.15,1.23,5.99,2.55,12.43-2.69
							c6.44-5.24,19.91-19.79,23.44-26.2C345.86,137.18,345.87,137.15,345.88,137.12z"/>
						<path style="fill:#009DFF;" d="M339.55,135.78l6.56,0.86c2.91-6.13-2.29-10.7-4.12-13.45c-1.88-2.83-16.64-21.19-21.6-19.07
							c0,0-1.02-0.34-2.79-0.41c-6,4.52-5.32,9.72,0.16,19.06C323.29,132.2,339.55,135.78,339.55,135.78z"/>
					</g>
					<g style="opacity:0.5;clip-path:url(#XMLID_15_);">
						<path style="fill:#FFFFFF;" d="M345.88,137.12l-12.19,3.86c0,0-12.68,14.96-17.24,18.86s-18.86-5.53-23.74-10.08
							c-0.52-0.49-1-0.93-1.44-1.34c5.82,7.91,13.08,15.48,18.7,17.67c3.15,1.23,5.99,2.55,12.43-2.69
							c6.44-5.24,19.91-19.79,23.44-26.2C345.86,137.18,345.87,137.15,345.88,137.12z"/>
						<path style="fill:#FFFFFF;" d="M339.55,135.78l6.56,0.86c2.91-6.13-2.29-10.7-4.12-13.45c-1.88-2.83-16.64-21.19-21.6-19.07
							c0,0-1.02-0.34-2.79-0.41c-6,4.52-5.32,9.72,0.16,19.06C323.29,132.2,339.55,135.78,339.55,135.78z"/>
					</g>
					
						<use xlink:href="#XMLID_6_"  style="overflow:visible;fill:none;stroke:#263238;stroke-width:1.1915;stroke-linecap:round;stroke-linejoin:round;stroke-miterlimit:10;"/>
				</g>
				<g>
					
						<path style="fill:#FFFFFF;stroke:#263238;stroke-width:1.1915;stroke-linecap:round;stroke-linejoin:round;stroke-miterlimit:10;" d="
						M303.39,147.81l-12.13-16.64c-1.91-2.63-1.34-6.31,1.29-8.22l12.8-9.33c2.63-1.91,6.31-1.34,8.22,1.29l12.13,16.64
						c1.91,2.63,1.34,6.31-1.29,8.22l-12.8,9.33C308.98,151.01,305.3,150.44,303.39,147.81z"/>
					
						<path style="fill:#FFFFFF;stroke:#263238;stroke-width:1.1915;stroke-linecap:round;stroke-linejoin:round;stroke-miterlimit:10;" d="
						M479.52,230.22c-14.95-39.03-52.34-38.57-85.34-38.16c-11.37,0.14-22.12,0.28-32.02-0.98c-33.37-4.22-42.91-38.52-43.03-38.97
						c-0.33-1.27-1.63-2.03-2.91-1.7c-1.27,0.34-2.03,1.64-1.7,2.91c0.1,0.38,10.39,37.85,47.04,42.48
						c10.24,1.3,21.64,1.15,32.68,1.02c32.96-0.41,67.06-0.83,80.83,35.1c6.33,16.52,2.81,35.94-8.95,49.48
						c-10.25,11.79-24.77,16.57-39.85,13.11c-14.23-3.27-28.29-7.77-41.89-12.12c-22.5-7.2-45.78-14.65-70.48-16.72
						c-42.35-3.56-71.81,17.07-105.89,40.95c-6.86,4.8-13.95,9.77-21.38,14.71l-4.23,2.82c-21.08,14.08-42.89,28.64-67.56,31.27
						c-19.18,2.05-38.69-6.94-48.55-22.36c-5.61-8.77-7.54-19.25-5.3-28.75c2.05-8.67,7.26-15.7,15.06-20.35
						c12.77-7.61,35.33-10.13,54.57-8.05l0.33-4.75c-20.19-2.15-43.76,0.61-57.34,8.71c-8.81,5.25-14.94,13.54-17.26,23.35
						c-2.54,10.75-0.38,22.57,5.92,32.42c9.9,15.48,27.81,24.83,46.82,24.85c2.07,0,4.16-0.1,6.25-0.33
						c25.84-2.75,49.14-18.32,69.7-32.04l4.22-2.81c7.48-4.97,14.6-9.96,21.48-14.78c33.33-23.35,62.11-43.52,102.76-40.1
						c24.16,2.03,47.17,9.39,69.42,16.51c13.69,4.38,27.85,8.91,42.28,12.22c16.85,3.87,33.08-1.46,44.52-14.63
						C482.62,269.68,486.47,248.36,479.52,230.22z"/>
					
						<path style="fill:#009DFF;stroke:#263238;stroke-width:1.1915;stroke-linecap:round;stroke-linejoin:round;stroke-miterlimit:10;" d="
						M313.4,121.06c0,1.79-1.45,3.25-3.25,3.25c-1.79,0-3.25-1.45-3.25-3.25s1.45-3.25,3.25-3.25
						C311.94,117.81,313.4,119.27,313.4,121.06z"/>
					
						<path style="fill:#009DFF;stroke:#263238;stroke-width:1.1915;stroke-linecap:round;stroke-linejoin:round;stroke-miterlimit:10;" d="
						M304.58,128.48c0,1.79-1.45,3.25-3.25,3.25c-1.79,0-3.25-1.45-3.25-3.25c0-1.79,1.45-3.25,3.25-3.25
						C303.13,125.24,304.58,126.69,304.58,128.48z"/>
				</g>
			</g>
			<g>
				<defs>
					
						<ellipse id="XMLID_5_" transform="matrix(0.6614 -0.75 0.75 0.6614 37.9098 291.595)" cx="341.93" cy="103.81" rx="26.5" ry="26.5"/>
				</defs>
				<use xlink:href="#XMLID_5_"  style="overflow:visible;fill:#FFFFFF;"/>
				<clipPath id="XMLID_16_">
					<use xlink:href="#XMLID_5_"  style="overflow:visible;"/>
				</clipPath>
				<path style="clip-path:url(#XMLID_16_);fill:#009DFF;" d="M362.07,86.59c-0.93-1.09-1.95-2.06-3.01-2.96
					c2.71,9.64-0.15,20.4-8.26,27.33c-10.03,8.58-24.61,8.33-34.36,0.04c1.01,3.58,2.76,7.02,5.34,10.03
					c9.51,11.12,26.24,12.43,37.36,2.92C370.28,114.44,371.58,97.71,362.07,86.59z"/>
				<path style="opacity:0.5;clip-path:url(#XMLID_16_);fill:#FFFFFF;" d="M362.07,86.59c-0.93-1.09-1.95-2.06-3.01-2.96
					c2.71,9.64-0.15,20.4-8.26,27.33c-10.03,8.58-24.61,8.33-34.36,0.04c1.01,3.58,2.76,7.02,5.34,10.03
					c9.51,11.12,26.24,12.43,37.36,2.92C370.28,114.44,371.58,97.71,362.07,86.59z"/>
				
					<use xlink:href="#XMLID_5_"  style="overflow:visible;fill:none;stroke:#263238;stroke-width:1.1915;stroke-linecap:round;stroke-linejoin:round;stroke-miterlimit:10;"/>
			</g>
			<g>
				
					<line style="fill:none;stroke:#263238;stroke-width:1.1915;stroke-linecap:round;stroke-linejoin:round;stroke-miterlimit:10;" x1="365.46" y1="122.13" x2="373.18" y2="115.53"/>
				<path style="fill:#263238;" d="M375.23,116.36c0.86-0.73,0.96-2.02,0.22-2.88c-0.73-0.86-2.02-0.96-2.88-0.22
					c-0.86,0.73-0.96,2.02-0.22,2.88C373.08,117,374.37,117.1,375.23,116.36z"/>
			</g>
			
				<path style="fill:#FFFFFF;stroke:#263238;stroke-width:1.1915;stroke-linecap:round;stroke-linejoin:round;stroke-miterlimit:10;" d="
				M356,130.13L356,130.13c-1.25-1.46-1.08-3.66,0.38-4.92l5.09-4.35c1.46-1.25,3.66-1.08,4.92,0.38l0,0
				c1.25,1.46,1.08,3.66-0.38,4.92l-5.09,4.35C359.45,131.77,357.25,131.6,356,130.13z"/>
			<g>
				<g>
					<defs>
						<path id="XMLID_4_" d="M347.71,134.49c0,0-10.29-2.77-14.34,4.96c-4.05,7.73,0.52,26.97,0.52,26.97s-7.52,12.22-9.43,13.55
							c-1.91,1.33-7.28,0.74-12.59,3.45c-5.3,2.71-3.55,5.47-2.14,6.4c1.41,0.93,5.73-1.85,7.03-1.75c1.31,0.1,1.13,2.39-3.88,7.58
							c-5,5.19-7.31,5.34-5.86,7.75c1.45,2.41,3.97,1.79,3.97,1.79s-0.66,2.08,1.4,3.07c2.06,0.98,2.94,0.23,2.94,0.23
							s-0.2,2.61,1.7,3.42c1.91,0.81,4.6,0.03,4.6,0.03s1.81,2.11,3.64,1.76c1.83-0.35,6.01-5.44,9.3-9.78
							c3.29-4.34,15.99-19.77,21-29.23c5.01-9.46,2.63-19.01,1.61-24.83C356.16,144.02,351.55,135.78,347.71,134.49z"/>
					</defs>
					<use xlink:href="#XMLID_4_"  style="overflow:visible;fill:#FFFFFF;"/>
					<clipPath id="XMLID_17_">
						<use xlink:href="#XMLID_4_"  style="overflow:visible;"/>
					</clipPath>
					<path style="clip-path:url(#XMLID_17_);fill:#009DFF;" d="M357.19,149.85c-1.02-5.83-5.63-14.07-9.47-15.35
						c0,0-0.1-0.02-0.24-0.06c1.33,2.96,5.19,12.91,4.11,26.71c-1.3,16.59-16.51,29.66-21.14,34.48
						c-3.71,3.86-8.38,9.27-15.11,13.27c0.03,0.76,0.26,2.4,1.71,3.01c1.91,0.81,4.6,0.03,4.6,0.03s1.81,2.11,3.64,1.76
						c1.83-0.35,6.01-5.44,9.3-9.78c3.29-4.34,15.99-19.77,21-29.23C360.58,165.22,358.21,155.68,357.19,149.85z"/>
					<path style="opacity:0.5;clip-path:url(#XMLID_17_);fill:#FFFFFF;" d="M357.19,149.85c-1.02-5.83-5.63-14.07-9.47-15.35
						c0,0-0.1-0.02-0.24-0.06c1.33,2.96,5.19,12.91,4.11,26.71c-1.3,16.59-16.51,29.66-21.14,34.48
						c-3.71,3.86-8.38,9.27-15.11,13.27c0.03,0.76,0.26,2.4,1.71,3.01c1.91,0.81,4.6,0.03,4.6,0.03s1.81,2.11,3.64,1.76
						c1.83-0.35,6.01-5.44,9.3-9.78c3.29-4.34,15.99-19.77,21-29.23C360.58,165.22,358.21,155.68,357.19,149.85z"/>
					
						<use xlink:href="#XMLID_4_"  style="overflow:visible;fill:none;stroke:#263238;stroke-width:1.1915;stroke-linecap:round;stroke-linejoin:round;stroke-miterlimit:10;"/>
				</g>
				<g>
					
						<path style="fill:none;stroke:#263238;stroke-width:1.1915;stroke-linecap:round;stroke-linejoin:round;stroke-miterlimit:10;" d="
						M325.27,213.7c1.83-0.35,6.01-5.44,9.3-9.78c1.86-2.46,6.74-8.47,11.53-14.94c-3.21-11.04-12.71-14.29-16.94-15.2
						c-1.91,2.86-3.87,5.6-4.71,6.19c-1.91,1.33-7.28,0.74-12.59,3.45c-5.3,2.71-3.55,5.47-2.14,6.4c1.41,0.93,5.73-1.85,7.03-1.75
						c1.31,0.1,1.13,2.39-3.88,7.58c-5,5.19-7.31,5.34-5.86,7.75c1.45,2.41,3.97,1.79,3.97,1.79s-0.66,2.08,1.4,3.07
						c2.06,0.98,2.94,0.23,2.94,0.23s-0.2,2.61,1.7,3.42c1.91,0.81,4.6,0.03,4.6,0.03S323.44,214.05,325.27,213.7z"/>
					
						<path style="fill:none;stroke:#263238;stroke-width:1.1915;stroke-linecap:round;stroke-linejoin:round;stroke-miterlimit:10;" d="
						M310.99,205.19c0,0,5.8-2.83,9.98-7.92"/>
					
						<path style="fill:none;stroke:#263238;stroke-width:1.1915;stroke-linecap:round;stroke-linejoin:round;stroke-miterlimit:10;" d="
						M315.33,208.49c0,0,5.95-2.65,10.48-8.05"/>
					
						<path style="fill:none;stroke:#263238;stroke-width:1.1915;stroke-linecap:round;stroke-linejoin:round;stroke-miterlimit:10;" d="
						M321.63,211.93c0,0,5.76-4.31,8.5-7.88"/>
				</g>
				
					<path style="fill:#FFFFFF;stroke:#263238;stroke-width:1.1915;stroke-linecap:round;stroke-linejoin:round;stroke-miterlimit:10;" d="
					M357.65,169.44c0.21-0.76,0.37-1.52,0.51-2.28c-8.38-5.59-18.94-3.76-24.58-2.13c0.18,0.87,0.3,1.38,0.3,1.38
					s-0.33,0.54-0.87,1.4C346.48,164.57,353.9,166.97,357.65,169.44z"/>
				
					<path style="fill:#009DFF;stroke:#263238;stroke-width:1.1915;stroke-linecap:round;stroke-linejoin:round;stroke-miterlimit:10;" d="
					M351.81,174.55c0.77,0.9,1.66,1.62,2.62,2.17c0.41-0.71,0.8-1.39,1.15-2.04c3-5.67,3.35-11.37,2.92-16.29
					c-2.06,0.1-4.09,0.84-5.77,2.27C348.65,164.16,348.24,170.37,351.81,174.55z"/>
			</g>
			<g>
				<g>
					<defs>
						<path id="XMLID_3_" d="M257.06,138.09c0,0,4.15,11.98,9.5,12.89c5.35,0.91,12.79-8.2,14.31-14.98
							c1.51-6.78-3.8-12.28-11.48-19.12c-7.68-6.84-18.7-10.82-27.97-5.63c-9.27,5.19-23.08,20.04-23.08,20.04s-8.6-7.57-13.18-3.66
							c-4.57,3.91,1.39,15.87,5.6,20.8c4.21,4.93,11.86,12.09,19.22,10.37c7.36-1.72,13.2-15.55,17.95-19.62
							C252.7,135.12,256.01,136.86,257.06,138.09z"/>
					</defs>
					<use xlink:href="#XMLID_3_"  style="overflow:visible;fill:#FFFFFF;"/>
					<clipPath id="XMLID_18_">
						<use xlink:href="#XMLID_3_"  style="overflow:visible;"/>
					</clipPath>
					<path style="clip-path:url(#XMLID_18_);fill:#009DFF;" d="M268.97,140.98c-8.13-3.9-5.85-13.66-13.99-16.26
						c-8.13-2.6-7.48,2.93-13.99,13.33c-6.5,10.41-18.54,9.76-26.67,7.16c-2.75-0.88-5.35-1.91-7.59-2.89
						c1.27,2.41,2.73,4.59,4.03,6.11c4.21,4.93,11.86,12.09,19.22,10.37c7.36-1.72,13.2-15.55,17.95-19.62
						c4.75-4.06,8.06-2.33,9.12-1.09c0,0,4.15,11.98,9.5,12.89c5.35,0.91,12.79-8.2,14.31-14.98c0.26-1.17,0.31-2.29,0.18-3.4
						l-0.38-0.08C280.68,132.53,277.1,144.88,268.97,140.98z"/>
					<path style="opacity:0.5;clip-path:url(#XMLID_18_);fill:#FFFFFF;" d="M268.97,140.98c-8.13-3.9-5.85-13.66-13.99-16.26
						c-8.13-2.6-7.48,2.93-13.99,13.33c-6.5,10.41-18.54,9.76-26.67,7.16c-2.75-0.88-5.35-1.91-7.59-2.89
						c1.27,2.41,2.73,4.59,4.03,6.11c4.21,4.93,11.86,12.09,19.22,10.37c7.36-1.72,13.2-15.55,17.95-19.62
						c4.75-4.06,8.06-2.33,9.12-1.09c0,0,4.15,11.98,9.5,12.89c5.35,0.91,12.79-8.2,14.31-14.98c0.26-1.17,0.31-2.29,0.18-3.4
						l-0.38-0.08C280.68,132.53,277.1,144.88,268.97,140.98z"/>
					
						<use xlink:href="#XMLID_3_"  style="overflow:visible;fill:none;stroke:#263238;stroke-width:1.1915;stroke-linecap:round;stroke-linejoin:round;stroke-miterlimit:10;"/>
				</g>
				
					<path style="fill:none;stroke:#263238;stroke-width:1.1915;stroke-linecap:round;stroke-linejoin:round;stroke-miterlimit:10;" d="
					M230.83,119.18c-6.64,5.82-12.48,12.11-12.48,12.11s-8.6-7.57-13.18-3.66c-4.57,3.91,1.39,15.87,5.6,20.8
					c4.21,4.93,11.86,12.09,19.22,10.37c6.64-1.55,12.04-12.95,16.52-18.15C238.35,132.51,233.22,123.79,230.83,119.18z"/>
				
					<path style="fill:none;stroke:#263238;stroke-width:1.1915;stroke-linecap:round;stroke-linejoin:round;stroke-miterlimit:10;" d="
					M252.95,109.03c-0.82-0.09-1.64-0.15-2.46-0.15c1.2,4.15,3.44,14.27,1.64,27.96c0.93-0.23,1.75-0.24,2.45-0.1
					C255.18,129.66,255.59,117.91,252.95,109.03z"/>
				
					<path style="fill:#009DFF;stroke:#263238;stroke-width:1.1915;stroke-linecap:round;stroke-linejoin:round;stroke-miterlimit:10;" d="
					M258.61,124.58c-3.69,3.16-9.25,2.72-12.4-0.97c-3.16-3.69-2.72-9.25,0.97-12.4c3.69-3.16,9.25-2.72,12.4,0.97
					C262.74,115.87,262.3,121.42,258.61,124.58z"/>
				
					<path style="fill:none;stroke:#263238;stroke-width:1.1915;stroke-linecap:round;stroke-linejoin:round;stroke-miterlimit:10;" d="
					M229.99,158.8c1.63-0.38,3.18-1.36,4.66-2.68c-4.71,0.78-13.41,0.53-21.32-8.96c-7.7-9.24-7.84-16.44-7.07-20.21
					c-0.38,0.17-0.75,0.39-1.09,0.69c-4.57,3.91,1.39,15.87,5.6,20.8C214.98,153.36,222.63,160.52,229.99,158.8z"/>
			</g>
			<g>
				<g>
					<defs>
						<path id="XMLID_2_" d="M281.13,180.59c0,0,12.17,3.58,16.01-0.24c3.85-3.82,4.4-15.43-3.88-20.34
							c-5.97-3.54-12.21-4.04-22.23-1.77c-10.03,2.27-19.67,8.93-20.83,19.49c-1.16,10.56,2.9,30.42,2.9,30.42
							s-11.16,2.61-10.63,8.6c0.53,6,13.73,8.09,20.18,7.52c6.46-0.57,16.73-2.63,19.61-9.62c2.87-6.99-4.99-19.78-5.54-26.01
							C276.18,182.42,279.52,180.73,281.13,180.59z"/>
					</defs>
					<use xlink:href="#XMLID_2_"  style="overflow:visible;fill:#FFFFFF;"/>
					<clipPath id="XMLID_20_">
						<use xlink:href="#XMLID_2_"  style="overflow:visible;"/>
					</clipPath>
					<path style="clip-path:url(#XMLID_20_);fill:#009DFF;" d="M281.13,180.59c0,0,12.17,3.58,16.01-0.24
						c2.5-2.49,3.59-8.26,1.78-13.35h-0.04c0,0,0.98,5.2-6.18,6.5c-7.16,1.3-18.86-1.3-24.07,5.2c-5.2,6.51,2.28,19.84,2.93,28.62
						c0.65,8.78-1.3,11.71-10.08,12.68c-8.64,0.96-16.63-5.29-18.44-1.48c2.68,4.63,13.83,6.25,19.6,5.74
						c6.46-0.57,16.73-2.63,19.61-9.62c2.87-6.99-4.99-19.78-5.54-26.01C276.18,182.42,279.52,180.73,281.13,180.59z"/>
					<path style="opacity:0.5;clip-path:url(#XMLID_20_);fill:#FFFFFF;" d="M281.13,180.59c0,0,12.17,3.58,16.01-0.24
						c2.5-2.49,3.59-8.26,1.78-13.35h-0.04c0,0,0.98,5.2-6.18,6.5c-7.16,1.3-18.86-1.3-24.07,5.2c-5.2,6.51,2.28,19.84,2.93,28.62
						c0.65,8.78-1.3,11.71-10.08,12.68c-8.64,0.96-16.63-5.29-18.44-1.48c2.68,4.63,13.83,6.25,19.6,5.74
						c6.46-0.57,16.73-2.63,19.61-9.62c2.87-6.99-4.99-19.78-5.54-26.01C276.18,182.42,279.52,180.73,281.13,180.59z"/>
					
						<use xlink:href="#XMLID_2_"  style="overflow:visible;fill:none;stroke:#263238;stroke-width:1.1915;stroke-linecap:round;stroke-linejoin:round;stroke-miterlimit:10;"/>
				</g>
				
					<path style="fill:none;stroke:#263238;stroke-width:1.1915;stroke-linecap:round;stroke-linejoin:round;stroke-miterlimit:10;" d="
					M250.5,190.96c0.88,8.78,2.6,17.19,2.6,17.19s-11.16,2.61-10.63,8.6c0.53,6,13.73,8.09,20.18,7.52
					c6.46-0.57,16.73-2.63,19.61-9.62c2.59-6.3-3.54-17.32-5.18-23.99C265.71,192.59,255.64,191.7,250.5,190.96z"/>
				
					<path style="fill:none;stroke:#263238;stroke-width:1.1915;stroke-linecap:round;stroke-linejoin:round;stroke-miterlimit:10;" d="
					M255.08,167.06c-0.55,0.61-1.07,1.24-1.54,1.91c4.07,1.43,13.61,5.49,23.71,14.91c0.35-0.89,0.82-1.56,1.34-2.06
					C273.18,177.23,263.85,170.07,255.08,167.06z"/>
				
					<ellipse transform="matrix(0.9211 -0.3892 0.3892 0.9211 -46.3644 115.6681)" style="fill:#009DFF;stroke:#263238;stroke-width:1.1915;stroke-linecap:round;stroke-linejoin:round;stroke-miterlimit:10;" cx="262.27" cy="172.25" rx="8.8" ry="8.8"/>
				
					<path style="fill:none;stroke:#263238;stroke-width:1.1915;stroke-linecap:round;stroke-linejoin:round;stroke-miterlimit:10;" d="
					M282.26,214.66c0.63-1.54,0.74-3.37,0.52-5.35c-2.1,4.29-7.36,11.22-19.68,12.15c-12,0.9-17.93-3.17-20.56-5.99
					c-0.08,0.41-0.12,0.84-0.08,1.29c0.53,6,13.73,8.09,20.18,7.52C269.11,223.71,279.39,221.65,282.26,214.66z"/>
			</g>
			<g>
				
					<path style="fill:#263238;stroke:#263238;stroke-width:1.1915;stroke-linecap:round;stroke-linejoin:round;stroke-miterlimit:10;" d="
					M350.87,92.66c-2.74-3.6-5.13-7.27-7.17-10.91c-6.15-0.82-12.6,0.87-17.69,5.22c-9.48,8.11-10.6,22.37-2.49,31.86
					c8.11,9.48,22.37,10.6,31.86,2.49c4.72-4.04,7.37-9.6,7.83-15.34C358.95,102.23,354.75,97.75,350.87,92.66z"/>
				<path style="fill:#FFFFFF;" d="M353.06,113.17c-2.85,2.43-7.26,1.94-9.86-1.1c-2.6-3.04-2.4-7.48,0.45-9.91
					c2.85-2.43,7.26-1.94,9.86,1.1C356.11,106.3,355.91,110.74,353.06,113.17z"/>
				<path style="fill:#FFFFFF;" d="M345.63,96.42c-0.91,0.77-2.27,0.67-3.04-0.24c-0.77-0.91-0.67-2.27,0.24-3.04
					c0.91-0.77,2.27-0.67,3.04,0.24C346.64,94.28,346.53,95.64,345.63,96.42z"/>
			</g>
		</g>
		
			<rect x="125.16" y="268.54" transform="matrix(0.9952 0.098 -0.098 0.9952 27.3805 -11.2625)" style="fill:#263238;" width="6.45" height="9.32"/>
	</g>
</g>
</svg>
